<svg xmlns="http://www.w3.org/2000/svg" width="128" height="128" fill="none" xmlns:v="https://vecta.io/nano"><g clip-path="url(#E)"><path d="M124.83 70.097l-.08-.12-.1-.1-5.975-6.841c-.337-.42-.764-.76-1.249-.994s-1.015-.356-1.554-.358h-32.5l-4.294-25.26v-.03l-.01-.03c-.172-.892-.65-1.696-1.351-2.274l-.11-.1-.13-.08-29.587-19.751a5 5 0 0 0-2.943-.771h-1.041c-1.101 0-1.862.18-2.282.441-.24.09-.48.2-.701.351L11.355 33.91l-.12.08-.11.1c-.7.578-1.178 1.382-1.351 2.274v.03l-.01.03-6.366 37.43a3.89 3.89 0 0 0 .231 2.234c.295.706.791 1.308 1.427 1.733a3.88 3.88 0 0 0 4.297.009l12.381 35.327.681 1.953H49.54l54.571.401 1.361.01.881-1.042 12.672-14.954a4.1 4.1 0 0 0 .35-.501l2.282-.03c.85-.004 1.67-.321 2.303-.889a3.49 3.49 0 0 0 1.131-2.195l.01-.14v-.13l.48-22.967c.06-.911-.2-1.823-.741-2.574h-.01z" stroke="#000" stroke-width="5" stroke-miterlimit="10"/><path d="M49.521 113.697H23.416L10.024 75.476l32.61-20.052a2.77 2.77 0 0 1 2.843-.04l34.232 20.102-7.757 18.99 44.372.581c.84.01 1.581.501 1.931 1.262a2.12 2.12 0 0 1-.32 2.284l-13.122 15.504-55.291-.41z" fill="url(#A)"/><path d="M44.075 56.516c.23 0 .45.05.641.17l33.121 19.431-8.108 19.832 46.573.601a.67.67 0 0 1 .491 1.092l-12.672 14.954-54.591-.401H24.477L11.836 76.127l31.579-19.431c.2-.12.43-.18.661-.18zm0-3.005c-.781 0-1.561.21-2.232.631L10.264 73.563l-2.062 1.272.801 2.284 12.642 36.068.701 2.003H49.54l54.571.411 1.402.01.9-1.072 12.682-14.954a3.68 3.68 0 0 0 .82-1.866c.092-.687-.012-1.386-.3-2.016a3.67 3.67 0 0 0-3.272-2.148l-42.16-.551 6.436-15.745.991-2.404-2.252-1.322-33.111-19.431c-.655-.389-1.401-.596-2.162-.601l-.01.01z" fill="#ec537a"/><path d="M90.078 104.983h-6.706l5.565-8.434h6.706l-5.565 8.434zm9.409 0h-6.706l5.555-8.434h6.706l-5.555 8.434z" fill="#000"/><path d="M72.632 98.052a1.85 1.85 0 0 1-.858-.209c-.265-.138-.493-.338-.664-.583s-.28-.528-.319-.824-.004-.598.099-.878l12.512-32.452h32.47c.671 0 1.301.3 1.722.831l6.045 6.911.04.06c.361.501.521 1.102.481 1.703l-.481 23.067v.07c-.059.505-.302.972-.682 1.31a2.07 2.07 0 0 1-1.38.523l-48.985.471z" fill="url(#B)"/><path d="M115.872 64.598c.221 0 .431.11.561.291l6.035 6.911a1.01 1.01 0 0 1 .191.721l-.481 23.057a.57.57 0 0 1-.56.501l-48.986.471a.35.35 0 0 1-.288-.149.35.35 0 0 1-.043-.322l12.131-31.48h31.429.01zm-.01-3.005H82.371l-.741 1.923-12.131 31.49-.01.02-.01.03a3.36 3.36 0 0 0-.175 1.587c.07.535.268 1.046.578 1.489a3.35 3.35 0 0 0 2.751 1.431l49.016-.471c1.781 0 3.303-1.362 3.513-3.165l.02-.14v-.14l.48-22.957c.06-.951-.2-1.883-.76-2.654l-.08-.1-.1-.11-5.976-6.851c-.347-.428-.785-.773-1.282-1.011a3.7 3.7 0 0 0-1.591-.362l-.01-.01z" fill="#ec537a"/><path d="M7.242 77.048a2.5 2.5 0 0 1-1.061-.24c-.332-.157-.625-.385-.859-.668s-.403-.614-.495-.969-.105-.727-.037-1.088l6.366-37.42c.1-.601.42-1.122.871-1.492l.05-.05 30.038-20.032.531-.03c.901 0 1.642.731 1.642 1.633v37.45a2.46 2.46 0 0 1-.921 1.933l-.08.07L8.703 76.577c-.43.321-.931.481-1.461.481v-.01z" fill="url(#C)"/><path d="M42.654 16.562c.07 0 .13.05.13.13v37.45a1 1 0 0 1-.36.771L7.862 75.325a.98.98 0 0 1-.621.22 1 1 0 0 1-.766-.362 1 1 0 0 1-.215-.82l6.366-37.46a.98.98 0 0 1 .35-.571l29.597-19.751a.15.15 0 0 1 .08-.02zm0-3.005c-.641 0-1.251.18-1.772.541L11.305 33.829l-.12.09-.11.1c-.726.59-1.222 1.416-1.401 2.334v.06l-6.376 37.43a3.98 3.98 0 0 0 .857 3.282c.376.45.847.811 1.379 1.058a3.97 3.97 0 0 0 1.698.368 4 4 0 0 0 2.282-.721l34.432-20.332.19-.12.17-.14c.462-.374.834-.848 1.088-1.385a3.98 3.98 0 0 0 .383-1.72v-37.44c0-1.733-1.401-3.135-3.133-3.135h.01z" fill="#ec537a"/><path d="M81.6 77.048a2.44 2.44 0 0 1-1.471-.481L45.557 56.145l-.09-.07c-.288-.233-.52-.528-.679-.862a2.49 2.49 0 0 1-.241-1.071v-37.45c0-.901.741-1.633 1.641-1.633h.471l.45.281 29.657 19.792.05.04a2.55 2.55 0 0 1 .871 1.462l6.366 37.48a2.45 2.45 0 0 1-.52 2.023c-.236.286-.532.517-.868.674a2.5 2.5 0 0 1-1.074.237h.01z" fill="url(#D)"/><path d="M46.187 16.562c.03 0 .06 0 .08.02l29.597 19.751c.18.15.3.351.34.581l6.366 37.46c.032.198.004.402-.081.584a1 1 0 0 1-.969.576 1 1 0 0 1-.552-.208L46.418 54.893a1 1 0 0 1-.37-.761v-37.44c0-.08.07-.13.14-.13zm0-3.005a3.14 3.14 0 0 0-2.219.918c-.589.588-.921 1.385-.924 2.217v37.45a4.03 4.03 0 0 0 1.471 3.105l.18.14.2.11 34.422 20.343a4 4 0 0 0 2.202.699c.787.011 1.559-.209 2.221-.634s1.184-1.036 1.501-1.757a4.01 4.01 0 0 0 .282-2.294l-6.356-37.44v-.03l-.01-.03c-.174-.915-.663-1.741-1.381-2.334l-.12-.1-.13-.08-29.587-19.761a3.1 3.1 0 0 0-1.742-.531l-.01.01z" fill="#ec537a"/><path d="M48.52 115.239h-9.559l-1.602-11.278a5.77 5.77 0 0 1 .844-3.01c.553-.907 1.345-1.643 2.289-2.128 1.912-.982 4.174-1.002 6.116-.07l.2.1c.978.471 1.803 1.209 2.38 2.129a5.77 5.77 0 0 1 .883 3.069l-1.551 11.188zm-1.101-34.415h-7.367l-1.241-8.564c0-1.643.931-3.145 2.422-3.896.729-.365 1.531-.559 2.346-.567a5.37 5.37 0 0 1 2.358.517l.17.08c.746.353 1.376.91 1.819 1.607a4.38 4.38 0 0 1 .683 2.329l-1.191 8.494z" fill="#000"/></g><defs><linearGradient id="A" x1="64.234" y1="55.013" x2="64.234" y2="114.107" gradientUnits="userSpaceOnUse"><stop offset=".313" stop-color="#ffccd9"/><stop offset="1" stop-color="#ff8fac"/></linearGradient><linearGradient id="B" x1="97.475" y1="63.096" x2="97.475" y2="98.052" gradientUnits="userSpaceOnUse"><stop offset=".2" stop-color="#ff8fac"/><stop offset=".3" stop-color="#ffccd9"/></linearGradient><linearGradient id="C" x1="11.606" y1="36.694" x2="39.153" y2="56.188" gradientUnits="userSpaceOnUse"><stop offset=".07" stop-color="#ff8fac"/><stop offset=".755" stop-color="#ffccd9"/></linearGradient><linearGradient id="D" x1="44.426" y1="17.884" x2="79.172" y2="75.475" gradientUnits="userSpaceOnUse"><stop offset=".07" stop-color="#ff8fac"/><stop offset=".708" stop-color="#ffccd9"/></linearGradient><clipPath id="E"><path fill="#fff" d="M0 0h128v128H0z"/></clipPath></defs></svg>