<svg xmlns="http://www.w3.org/2000/svg" width="128" height="128"><g><path fill="none" stroke="#000" stroke-width="5" stroke-miterlimit="10" d="M124.32 70.93l-.08-.1-.1-.11-5.97-6.83a3.6 3.6 0 00-2.8-1.35H82.9l-4.29-25.22v-.03l-.01-.03c-.17-.9-.65-1.7-1.35-2.28l-.11-.09-.13-.08L47.44 15.1a5.03 5.03 0 00-2.95-.77h-1.02c-1.1 0-1.87.18-2.28.44-.24.09-.48.2-.7.35L10.95 34.8l-.12.08-.11.1a3.92 3.92 0 00-1.35 2.27v.03l-.01.03L3 74.69a3.88 3.88 0 005.95 3.97l12.37 35.27.68 1.95H49.1l54.52.4 1.36.01.88-1.04 12.66-14.93c.13-.16.25-.33.35-.51l2.28-.02a3.47 3.47 0 003.43-3.09l.01-.13v-.13l.48-22.93c.06-.92-.2-1.83-.74-2.58z"/><linearGradient id="e" gradientUnits="userSpaceOnUse" x1="64.01" y1="55.71" x2="64.01" y2="114.71"><stop offset=".11" stop-color="#d04df7"/><stop offset=".38" stop-color="#cd4bf5"/><stop offset=".55" stop-color="#c545ed"/><stop offset=".69" stop-color="#b73ae1"/><stop offset=".81" stop-color="#a32acf"/><stop offset=".92" stop-color="#8916b8"/><stop offset="1" stop-color="#7003a3"/></linearGradient><path fill="url(#e)" d="M49.31 114.3H23.23L9.84 76.14l32.58-20.02a2.76 2.76 0 012.85-.03l34.2 20.06-7.76 18.96 44.33.58c.85.01 1.59.5 1.94 1.26s.22 1.64-.32 2.29l-13.11 15.47-55.24-.41z"/><path fill="#4F0066" d="M43.87 57.2c.22 0 .44.06.64.18l33.08 19.4-8.1 19.8 46.53.6c.56.02.85.66.5 1.09l-12.66 14.93-54.54-.4H24.3L11.66 76.79l31.55-19.4c.2-.12.43-.18.66-.18m0-3c-.79 0-1.56.22-2.23.63L10.09 74.23 8.03 75.5l.8 2.28 12.63 36 .7 2.02h27.16l54.51.4 1.4.01.91-1.07 12.66-14.93a3.62 3.62 0 00.54-3.88 3.67 3.67 0 00-3.27-2.14l-42.13-.55 6.43-15.72.98-2.4-2.24-1.32-33.08-19.4a4.26 4.26 0 00-2.16-.6z"/><path d="M89.84 105.6h-6.7l5.55-8.42h6.7zM99.23 105.6h-6.7l5.55-8.42h6.7z"/><linearGradient id="f" gradientUnits="userSpaceOnUse" x1="97.21" y1="63.78" x2="97.21" y2="98.68"><stop offset=".2" stop-color="#7003a3"/><stop offset=".21" stop-color="#8916b8"/><stop offset=".22" stop-color="#a32acf"/><stop offset=".23" stop-color="#b73ae1"/><stop offset=".25" stop-color="#c545ed"/><stop offset=".27" stop-color="#cd4bf5"/><stop offset=".3" stop-color="#d04df7"/></linearGradient><path fill="url(#f)" d="M72.4 98.68a1.86 1.86 0 01-1.75-2.49l12.5-32.4h32.44c.67 0 1.31.3 1.73.83l6.04 6.91.05.06c.35.5.51 1.09.47 1.69l-.48 23.03v.07a2.07 2.07 0 01-2.06 1.83l-48.94.47z"/><path fill="#4F0066" d="M115.6 65.28c.22 0 .43.1.56.29l6.03 6.9c.15.2.22.46.19.72l-.48 23.02a.57.57 0 01-.56.5l-48.95.47a.35.35 0 01-.33-.47l12.12-31.43h31.42m0-3H82.13l-.74 1.92-12.13 31.43v.02l-.01.03a3.35 3.35 0 003.14 4.5l48.98-.47c1.78 0 3.3-1.36 3.51-3.16l.02-.14v-.14l.47-22.92c.07-.94-.2-1.87-.74-2.64l-.09-.11-.1-.11-5.97-6.83a3.7 3.7 0 00-2.87-1.38z"/><g><linearGradient id="g" gradientUnits="userSpaceOnUse" x1="43" y1="57.37" x2="10.2" y2="38.43"><stop offset=".11" stop-color="#d04df7"/><stop offset=".28" stop-color="#cc4af3"/><stop offset=".47" stop-color="#bf40e8"/><stop offset=".66" stop-color="#a92fd5"/><stop offset=".86" stop-color="#8b18bb"/><stop offset="1" stop-color="#7003a3"/></linearGradient><path fill="url(#g)" d="M7.07 77.71a2.5 2.5 0 01-2.45-2.96l6.35-37.36c.12-.6.42-1.12.87-1.49l.06-.04L41.9 15.84l.53-.02c.9 0 1.64.73 1.64 1.64v37.37c0 .76-.34 1.46-.92 1.94l-.09.06-34.54 20.4c-.43.32-.93.48-1.46.48z"/><path fill="#4F0066" d="M42.44 17.32c.07 0 .14.05.14.13v37.38a1 1 0 01-.36.77L7.69 75.99a1 1 0 01-1.6-.95l6.36-37.4a.99.99 0 01.34-.58l29.57-19.72a.15.15 0 01.08-.02m0-3c-.64 0-1.25.19-1.77.55l-29.54 19.7-.13.08-.11.1a4 4 0 00-1.38 2.32l-.01.03v.04L3.13 74.5a3.97 3.97 0 003.93 4.7c.81 0 1.6-.25 2.28-.72l34.39-20.3.2-.12.16-.14a3.97 3.97 0 001.48-3.1V17.45c0-1.72-1.4-3.13-3.14-3.13z"/></g><g><linearGradient id="h" gradientUnits="userSpaceOnUse" x1="78.22" y1="38.43" x2="45.42" y2="57.37"><stop offset="0" stop-color="#7003a3"/><stop offset=".14" stop-color="#8b18bb"/><stop offset=".34" stop-color="#a92fd5"/><stop offset=".53" stop-color="#bf40e8"/><stop offset=".72" stop-color="#cc4af3"/><stop offset=".89" stop-color="#d04df7"/></linearGradient><path fill="url(#h)" d="M81.35 77.71c-.53 0-1.03-.16-1.46-.48l-34.54-20.4-.09-.06a2.48 2.48 0 01-.92-1.94V17.45c0-.9.74-1.63 1.64-1.63h.46l.46.28 29.63 19.76.06.05c.44.37.75.88.85 1.45l6.37 37.42c.13.7-.06 1.45-.52 2.02a2.5 2.5 0 01-1.94.91z"/><path fill="#4F0066" d="M45.98 17.32c.03 0 .05 0 .08.02l29.57 19.72c.17.15.3.35.34.58l6.36 37.4a1 1 0 01-1.6.95l-34.52-20.4a.99.99 0 01-.37-.76V17.45c0-.08.07-.13.14-.13m0-3a3.14 3.14 0 00-3.14 3.14v37.37c0 1.21.54 2.34 1.48 3.1l.17.14.2.11L79.07 78.5a3.99 3.99 0 006.2-3.98l-6.35-37.37v-.03l-.01-.02a4 4 0 00-1.38-2.34l-.12-.1-.13-.08-29.57-19.72a3.1 3.1 0 00-1.74-.53z"/></g><path d="M48.3 115.9h-9.54l-1.6-11.25a5.75 5.75 0 013.13-5.13c1.91-.98 4.17-1 6.1-.07l.22.1a5.76 5.76 0 013.25 5.19l-1.55 11.16zM47.2 81.48h-7.36l-1.23-8.55c0-1.64.93-3.14 2.41-3.89a5.36 5.36 0 014.72-.05l.16.07A4.37 4.37 0 0148.4 73l-1.2 8.48z"/></g></svg>