<svg xmlns="http://www.w3.org/2000/svg" width="112.252" height="112.253">
  <radialGradient id="a" cx="56.126" cy="56.126" r="56.126" gradientUnits="userSpaceOnUse">
    <stop offset="0" stop-color="#ffccd9" />
    <stop offset="1" stop-color="#ff8fac" />
  </radialGradient>
  <path d="M56.126 104.626c-26.743 0-48.5-21.758-48.5-48.5 0-26.743 21.757-48.5 48.5-48.5s48.5 21.757 48.5 48.5-21.756 48.5-48.5 48.5z" fill="url(#a)" />
  <path d="M56.126 9.126c25.957 0 47 21.043 47 47 0 25.958-21.043 47-47 47-25.958 0-47-21.043-47-47s21.043-47 47-47m0-3c-27.57 0-50 22.431-50 50 0 27.57 22.43 50 50 50s50-22.431 50-50-22.43-50-50-50z" fill="#ec537a" />
  <path d="M56.126 11.126c24.812 0 45 20.188 45 45 0 24.813-20.188 45-45 45-24.813 0-45-20.188-45-45s20.187-45 45-45m0-2c-25.958 0-47 21.043-47 47 0 25.958 21.042 47 47 47 25.957 0 47-21.043 47-47s-21.043-47-47-47z" fill="#fff" />
</svg>