<svg xmlns="http://www.w3.org/2000/svg" width="112.252" height="112.253"><radialGradient id="a" cx="152.126" cy="-173.874" r="48.5" gradientTransform="matrix(1 0 0 -1 -96 -117.747)" gradientUnits="userSpaceOnUse"><stop offset="0" stop-color="#b873a6"/><stop offset=".195" stop-color="#b471a6"/><stop offset=".397" stop-color="#a76ba7"/><stop offset=".602" stop-color="#9361a9"/><stop offset=".808" stop-color="#7653ac"/><stop offset="1" stop-color="#5443af"/></radialGradient><path d="M56.126 104.626c-26.743 0-48.5-21.758-48.5-48.5 0-26.743 21.757-48.5 48.5-48.5s48.5 21.757 48.5 48.5-21.756 48.5-48.5 48.5z" fill="url(#a)"/><path d="M56.126 9.126c25.957 0 47 21.043 47 47 0 25.958-21.043 47-47 47-25.958 0-47-21.043-47-47s21.043-47 47-47m0-3c-27.57 0-50 22.431-50 50 0 27.57 22.43 50 50 50s50-22.431 50-50-22.43-50-50-50z" fill="#5627af"/><path d="M56.126 11.126c24.812 0 45 20.188 45 45 0 24.813-20.188 45-45 45-24.813 0-45-20.188-45-45s20.187-45 45-45m0-2c-25.958 0-47 21.043-47 47 0 25.958 21.042 47 47 47 25.957 0 47-21.043 47-47s-21.043-47-47-47z" fill="#fff"/></svg>