<svg xmlns="http://www.w3.org/2000/svg" width="112.252" height="112.253"><radialGradient id="a" cx="151.886" cy="-173.874" r="48.5" gradientTransform="matrix(1 0 0 -1 -96 -117.747)" gradientUnits="userSpaceOnUse"><stop offset="0" stop-color="#abffe1"/><stop offset=".169" stop-color="#a7fce1"/><stop offset=".344" stop-color="#9af4e1"/><stop offset=".522" stop-color="#86e7e1"/><stop offset=".702" stop-color="#69d4e1"/><stop offset=".882" stop-color="#44bce1"/><stop offset="1" stop-color="#27aae1"/></radialGradient><path d="M55.886 104.626c-26.743 0-48.5-21.758-48.5-48.5 0-26.743 21.757-48.5 48.5-48.5s48.5 21.757 48.5 48.5-21.757 48.5-48.5 48.5z" fill="url(#a)"/><path d="M55.886 9.127c25.958 0 47 21.042 47 46.999 0 25.958-21.041 47-47 47-25.957 0-47-21.043-47-47s21.043-46.999 47-46.999m0-3c-27.57 0-50 22.43-50 49.999 0 27.57 22.43 50 50 50s50-22.431 50-50-22.429-49.999-50-49.999z" fill="#0c79bc"/><path d="M55.886 11.127c24.813 0 45 20.187 45 44.999 0 24.813-20.187 45-45 45s-45-20.188-45-45 20.187-44.999 45-44.999m0-2c-25.957 0-47 21.042-47 46.999 0 25.958 21.043 47 47 47 25.958 0 47-21.043 47-47s-21.041-46.999-47-46.999z" fill="#fff"/></svg>