<svg xmlns="http://www.w3.org/2000/svg" width="194" height="194" fill="none" xmlns:v="https://vecta.io/nano"><g clip-path="url(#B)"><path d="M76.65 181.8V11.76L95.92.66l19.32 11.14v170l-19.32 11.12-19.27-11.12z" fill="url(#A)"/><path d="M95.92 1.3l18.76 10.82v169.35l-18.76 10.8-18.71-10.8V12.1L95.92 1.3zm0-1.3l-.56.32-18.71 10.8-.56.33v170.66l.56.33 18.71 10.8.56.33.56-.33 18.76-10.8.56-.33V11.48l-.56-.33L96.48.32 95.92 0z" fill="#000"/><path d="M95.92 5.18l15.4 8.88v165.46l-15.4 8.87-15.35-8.86V14.04l15.35-8.86zm0-3.89L77.21 12.1v169.37l18.71 10.8 18.76-10.8V12.12L95.92 1.3v-.01z" fill="#ec537a"/></g><defs><linearGradient id="A" x1="76.65" y1="96.78" x2="115.24" y2="96.78" gradientUnits="userSpaceOnUse"><stop offset=".15" stop-color="#ffccd9"/><stop offset=".5" stop-color="#ff8fac"/><stop offset=".85" stop-color="#ffccd9"/></linearGradient><clipPath id="B"><path fill="#fff" d="M0 0h193.6v193.57H0z"/></clipPath></defs></svg>