<svg xmlns="http://www.w3.org/2000/svg" width="128" height="128"><g><path d="M65.72 22.36c.26 0 32.98 27.03 32.98 27.03.24.2.41.48.47.79l7.8 47.1c.18.9-.1 1.61-.63 1.61-.2 0-.43-.1-.69-.3l-5.35-4.28-1.78 3.07-9.2 15.79H38.68l-9.2-14.94-2.24-3.55-4.89 3.9c-.26.22-.5.31-.7.31-.53 0-.8-.7-.62-1.6l7.8-47.11c.06-.3.23-.59.47-.79 0 0 32.73-27.03 32.97-27.03h3.45m-3.45-5c-1.8 0-2.63.66-4.62 2.26l-3.8 3.09L42.52 32l-16.4 13.53a6.37 6.37 0 00-2.22 3.82l-7.8 47.06a6.62 6.62 0 001.27 5.44 5.56 5.56 0 004.29 2.03c.95 0 2.4-.25 3.85-1.43l.47-.37 8.45 13.7a5 5 0 004.25 2.38h50.64a5 5 0 004.32-2.48l8.07-13.85.8.64a6.03 6.03 0 003.83 1.41c1.67 0 3.23-.74 4.3-2.03a6.62 6.62 0 001.26-5.44l-7.8-47.06-.02-.11a6.36 6.36 0 00-2.18-3.7A11946.5 11946.5 0 0074.15 22.7c-6.53-5.33-6.53-5.33-8.36-5.35h-3.51z"/><linearGradient id="d" gradientUnits="userSpaceOnUse" x1="64.15" y1="69.38" x2="64.15" y2="114.72"><stop offset=".11" stop-color="#d04df7"/><stop offset=".38" stop-color="#cd4bf5"/><stop offset=".55" stop-color="#c545ed"/><stop offset=".69" stop-color="#b73ae1"/><stop offset=".81" stop-color="#a32acf"/><stop offset=".92" stop-color="#8916b8"/><stop offset="1" stop-color="#7003a3"/></linearGradient><path fill="url(#d)" d="M38 114.72L27.65 97.93l36.49-28.55 36.5 27.66-10.3 17.68z"/><path fill="#4F0066" d="M64.15 71.27l34.53 26.17-9.2 15.78H38.83l-9.2-14.94 34.51-27m-.03-3.8l-1.81 1.43-34.53 27.01-2.1 1.65 1.4 2.29 9.2 14.94.88 1.42H91.2l.86-1.48 9.21-15.8 1.34-2.29-2.12-1.6-34.52-26.17-1.84-1.4z"/><linearGradient id="e" gradientUnits="userSpaceOnUse" x1="61.27" y1="71.46" x2="26.5" y2="51.39"><stop offset=".11" stop-color="#d04df7"/><stop offset=".28" stop-color="#cc4af3"/><stop offset=".47" stop-color="#bf40e8"/><stop offset=".66" stop-color="#a92fd5"/><stop offset=".86" stop-color="#8b18bb"/><stop offset="1" stop-color="#7003a3"/></linearGradient><path fill="url(#e)" d="M21.81 100.45c-.62 0-1.19-.27-1.6-.76-.52-.64-.7-1.57-.5-2.63l7.8-47.07c.13-.69.48-1.28 1-1.7C61.63 20.9 61.66 20.9 62.42 20.9h1.5v45.17c0 .86-.38 1.66-1.05 2.2L23.44 99.81c-.51.42-1.06.64-1.63.64z"/><path fill="#4F0066" d="M62.43 22.41v43.67c0 .4-.18.79-.5 1.04L22.52 98.64c-.26.21-.5.3-.7.3-.53 0-.8-.7-.63-1.6l7.8-47.1c.07-.31.23-.6.47-.79 0 0 32.73-27.04 32.98-27.04m0-3h-.04c-1.13.02-1.13.02-7.12 4.9l-11.33 9.3-16.4 13.53a4.34 4.34 0 00-1.5 2.53v.04l-.01.03-7.8 47.08a4.59 4.59 0 00.83 3.83c.69.82 1.69 1.3 2.75 1.3.63 0 1.6-.17 2.59-.98l39.4-31.5a4.34 4.34 0 001.63-3.4V19.42h-3z"/><g><linearGradient id="f" gradientUnits="userSpaceOnUse" x1="101.81" y1="51.39" x2="67.05" y2="71.46"><stop offset="0" stop-color="#7003a3"/><stop offset=".14" stop-color="#8b18bb"/><stop offset=".34" stop-color="#a92fd5"/><stop offset=".53" stop-color="#bf40e8"/><stop offset=".72" stop-color="#cc4af3"/><stop offset=".89" stop-color="#d04df7"/></linearGradient><path fill="url(#f)" d="M106.5 100.45c-.57 0-1.12-.22-1.64-.65L65.44 68.3a2.85 2.85 0 01-1.06-2.22V20.92h1.52c.74 0 1.14.3 33.91 27.37.51.42.86 1.01.99 1.66l7.8 47.15a3.1 3.1 0 01-.51 2.6c-.4.48-.97.75-1.6.75z"/><path fill="#4F0066" d="M65.88 22.41c.25 0 32.98 27.04 32.98 27.04.24.2.4.48.47.78l7.8 47.11c.17.9-.1 1.6-.63 1.6-.2 0-.43-.09-.7-.3L66.39 67.12c-.32-.25-.5-.64-.5-1.04V22.4m0-3h-3v46.67c0 1.3.58 2.54 1.6 3.37l39.45 31.53c.98.8 1.94.97 2.57.97 1.06 0 2.06-.48 2.75-1.3a4.6 4.6 0 00.83-3.83l-7.8-47.08v-.07c-.2-1-.73-1.9-1.52-2.54L84.38 33.61c-4.1-3.38-8.23-6.76-11.33-9.3-6-4.9-6-4.9-7.16-4.9z"/></g><path d="M69.85 116.47H58.46l-.97-11.8a6.04 6.04 0 013.3-5.38 7.2 7.2 0 016.4-.07l.22.1c2.08 1.01 3.4 3.12 3.4 5.44l-.96 11.71z"/></g></svg>