<svg xmlns="http://www.w3.org/2000/svg" width="128" height="128" fill="none" xmlns:v="https://vecta.io/nano"><path d="M65.664 19.071c.3 0 33.006 27.003 33.006 27.003.3.2.4.5.5.8l7.802 47.004c.2 1-.1 1.7-.6 1.7a1.08 1.08 0 0 1-.701-.3l-5.401-4.3-1.8 3-9.202 15.901H38.66l-9.202-15.001-2.2-3.5-5.001 3.9-.6.3c-.6 0-.8-.7-.6-1.6l7.802-47.104c0-.3.2-.6.4-.8l33.006-27.003h3.401zm-3.401-5c-1.8 0-2.6.6-4.601 2.2L42.46 28.672 26.057 42.173a6.4 6.4 0 0 0-2.201 3.9l-7.801 47.004c-.3 2 .1 4 1.3 5.501a5.68 5.68 0 0 0 4.301 2 6 6 0 0 0 3.801-1.4l.5-.4 8.401 13.701a5 5 0 0 0 1.834 1.767c.754.421 1.603.639 2.466.634h50.609a5.01 5.01 0 0 0 2.54-.652c.774-.44 1.416-1.078 1.861-1.849l8.002-13.901.9.7a6 6 0 0 0 3.801 1.4c1.6 0 3.2-.8 4.3-2a6.6 6.6 0 0 0 1.216-2.616 6.59 6.59 0 0 0-.016-2.885l-7.801-47.004v-.2c-.3-1.4-1-2.7-2.2-3.7L85.468 28.672l-11.302-9.201c-6.601-5.301-6.601-5.301-8.401-5.301h-3.501-.1l.1-.1z" fill="#000"/><path d="M38.06 111.079L27.558 94.278l36.506-28.503 36.607 27.703-10.302 17.601H38.06z" fill="url(#A)"/><path d="M64.064 67.675L98.67 93.778l-9.202 15.801H38.86l-9.202-14.901 34.506-27.003h-.1zm.1-3.8l-1.9 1.4-34.506 27.002-2.1 1.7 1.4 2.3 9.202 15.001.9 1.3h53.91l.9-1.5 9.202-15.701 1.3-2.3-2-1.6-34.607-26.202-1.9-1.4h.2z" fill="#ec537a"/><path d="M21.757 96.878a2 2 0 0 1-1.6-.8c-.5-.6-.7-1.6-.5-2.6l7.802-47.105c.2-.7.5-1.3 1-1.7L62.464 17.27h1.5v45.204c0 .9-.4 1.7-1.1 2.2L23.457 96.178c-.5.4-1.1.7-1.7.7z" fill="url(#B)"/><path d="M62.464 18.771v43.704c0 .4-.2.8-.5 1L22.457 94.978c-.2.3-.5.4-.7.4-.5 0-.8-.7-.6-1.6l7.901-47.304 33.406-27.803v.1zm0-3.1c-1.1 0-1.1 0-7.101 5L44.06 29.872 27.557 43.473a4.61 4.61 0 0 0-1.5 2.6l-7.801 47.104c-.3 1.5 0 2.9.8 3.9.7.8 1.7 1.3 2.7 1.3a4 4 0 0 0 2.6-1l39.407-31.503c1-.9 1.7-2 1.7-3.4V15.77h-3.001v-.1z" fill="#ec537a"/><path d="M106.472 96.878c-.5 0-1.1-.3-1.601-.7L65.465 64.675c-.7-.5-1.1-1.3-1.1-2.2V17.27h1.5c.8 0 1.2.3 34.006 27.403.5.4.8 1 1 1.7l7.701 47.105c.2 1 0 2-.5 2.6-.186.248-.428.45-.706.589a2 2 0 0 1-.894.211z" fill="url(#C)"/><path d="M65.864 18.771c.3 0 33.006 27.003 33.006 27.003.2.3.4.5.4.8l7.802 47.204c.2.9 0 1.6-.6 1.6-.201 0-.401-.1-.701-.4L66.364 63.475c-.3-.2-.5-.6-.5-1V18.771zm0-3h-3.001v46.704c0 1.3.6 2.5 1.6 3.4l39.607 31.503c1 .8 1.9 1 2.501 1 1 0 2-.5 2.8-1.3.8-1 1-2.4.8-3.9l-7.801-47.004v-.1a4.61 4.61 0 0 0-1.5-2.6L84.368 30.072l-11.302-9.401c-6.001-4.9-6.001-4.9-7.201-4.9z" fill="#ec537a"/><path d="M69.865 112.879H58.463l-1-11.801a6 6 0 0 1 3.301-5.4c2-1 4.401-1 6.401 0h.2a6 6 0 0 1 3.401 5.5l-1 11.701h.1z" fill="#000"/><defs><linearGradient id="A" x1="64.164" y1="65.775" x2="64.164" y2="111.079" gradientUnits="userSpaceOnUse"><stop offset=".385" stop-color="#ffccd9"/><stop offset="1" stop-color="#ff8fac"/></linearGradient><linearGradient id="B" x1="61.264" y1="67.875" x2="26.459" y2="47.771" gradientUnits="userSpaceOnUse"><stop offset=".427" stop-color="#ffccd9"/><stop offset=".9" stop-color="#ff8fac"/></linearGradient><linearGradient id="C" x1="101.771" y1="47.773" x2="67.066" y2="67.878" gradientUnits="userSpaceOnUse"><stop offset=".146" stop-color="#ff8fac"/><stop offset=".563" stop-color="#ffccd9"/></linearGradient></defs></svg>