<svg xmlns="http://www.w3.org/2000/svg" width="128" height="128"><g><path d="M65.72 19.1c.26.01 32.98 27.04 32.98 27.04.24.2.41.48.47.79l7.8 47.1c.17.91-.1 1.61-.63 1.61-.2 0-.43-.1-.7-.3l-5.34-4.28-1.78 3.07-9.2 15.79H38.68l-9.2-14.94-2.24-3.55-4.89 3.9c-.26.22-.5.31-.69.31-.54 0-.8-.7-.63-1.6l7.8-47.11c.06-.3.22-.59.47-.79 0 0 32.73-27.03 32.97-27.03h3.45m-3.45-5c-1.8 0-2.63.66-4.62 2.26a4373.98 4373.98 0 00-15.14 12.4l-16.4 13.52a6.35 6.35 0 00-2.21 3.82l-7.8 47.06a6.62 6.62 0 001.27 5.45 5.55 5.55 0 004.29 2.02c.95 0 2.4-.24 3.85-1.42l.47-.38 8.45 13.7a5 5 0 004.25 2.38h50.64a5 5 0 004.32-2.48l8.07-13.85.82.65a6 6 0 003.81 1.4c1.66 0 3.23-.74 4.3-2.02a6.62 6.62 0 001.26-5.45l-7.8-47.06-.02-.1a6.35 6.35 0 00-2.19-3.71 11965.35 11965.35 0 00-27.74-22.84c-6.53-5.33-6.53-5.33-8.36-5.35H62.28z"/><linearGradient id="c" gradientUnits="userSpaceOnUse" x1="63.99" y1="66.07" x2="63.99" y2="111.42"><stop offset=".11" stop-color="#fffbf2"/><stop offset=".31" stop-color="#fbf8f0"/><stop offset=".53" stop-color="#eef0e9"/><stop offset=".76" stop-color="#d8e1dd"/><stop offset=".98" stop-color="#bacdcd"/><stop offset="1" stop-color="#b8cccc"/></linearGradient><path fill="url(#c)" d="M37.84 111.42L27.5 94.62 64 66.08l36.5 27.67-10.31 17.68z"/><path fill="#6BB2B0" d="M64 67.97l34.52 26.16-9.2 15.79H38.68l-9.2-14.94L64 67.97m-.03-3.79l-1.82 1.42-34.52 27.02-2.12 1.65 1.41 2.29 9.2 14.93.89 1.43h54.03l.87-1.49 9.2-15.79 1.34-2.3-2.11-1.6L65.8 65.58l-1.84-1.4z"/><linearGradient id="d" gradientUnits="userSpaceOnUse" x1="61.11" y1="68.16" x2="26.35" y2="48.09"><stop offset=".11" stop-color="#fffbf2"/><stop offset=".36" stop-color="#fbf9f1"/><stop offset=".63" stop-color="#eef3ee"/><stop offset=".9" stop-color="#d8eae8"/><stop offset="1" stop-color="#cfe6e6"/></linearGradient><path fill="url(#d)" d="M21.66 97.14c-.63 0-1.2-.27-1.6-.75-.53-.65-.7-1.58-.5-2.64l7.79-47.07c.13-.69.48-1.28 1-1.7C61.47 17.62 61.5 17.62 62.26 17.62h1.5v45.16c0 .86-.38 1.67-1.04 2.21L23.29 96.51c-.52.42-1.07.63-1.63.63z"/><path fill="#6BB2B0" d="M62.27 19.1v43.67c0 .4-.18.8-.5 1.05L22.36 95.34c-.26.2-.5.3-.69.3-.54 0-.8-.7-.63-1.6l7.8-47.1c.06-.32.22-.6.47-.8 0 0 32.72-27.03 32.97-27.03m0-3h-.04c-1.13.01-1.13.01-7.12 4.9l-11.33 9.3-16.4 13.52a4.35 4.35 0 00-1.5 2.53v.04l-.01.04-7.8 47.08a4.58 4.58 0 00.84 3.82c.68.83 1.69 1.3 2.75 1.3.63 0 1.59-.17 2.58-.98l39.41-31.5a4.35 4.35 0 001.62-3.38V16.1h-3z"/><g><linearGradient id="e" gradientUnits="userSpaceOnUse" x1="101.65" y1="48.09" x2="66.89" y2="68.16"><stop offset="0" stop-color="#cfe6e6"/><stop offset=".1" stop-color="#d8eae8"/><stop offset=".37" stop-color="#eef3ee"/><stop offset=".64" stop-color="#fbf9f1"/><stop offset=".89" stop-color="#fffbf2"/></linearGradient><path fill="url(#e)" d="M106.34 97.14c-.56 0-1.11-.21-1.64-.64L65.28 64.99a2.84 2.84 0 01-1.06-2.22V17.62l1.52-.01c.75 0 1.15.3 33.92 27.38.51.42.86 1.01.98 1.66l7.81 47.14c.2 1.02.02 1.96-.52 2.6-.4.48-.97.75-1.59.75z"/><path fill="#6BB2B0" d="M65.72 19.1c.26 0 32.98 27.04 32.98 27.04.24.2.41.48.47.79l7.8 47.1c.17.91-.1 1.61-.63 1.61-.2 0-.43-.1-.7-.3L66.23 63.81c-.31-.26-.5-.64-.5-1.05V19.11m0-3h-3v46.66c0 1.32.59 2.54 1.6 3.37l39.46 31.54c.97.8 1.93.96 2.56.96 1.06 0 2.07-.47 2.75-1.3.81-.98 1.1-2.34.83-3.83l-7.8-47.07v-.06c-.19-1-.72-1.9-1.5-2.54 0 0-8.19-6.77-16.4-13.53l-11.34-9.3c-6-4.9-6-4.9-7.16-4.9z"/></g><path d="M69.7 113.16H58.3l-.96-11.8a6.04 6.04 0 013.28-5.37 7.2 7.2 0 016.41-.08l.22.11c2.09 1 3.41 3.12 3.41 5.44l-.97 11.7z"/></g></svg>