<svg xmlns="http://www.w3.org/2000/svg" width="128" height="128"><g><path d="M65.88 19.1c.25.01 32.98 27.04 32.98 27.04.24.2.4.48.47.79l7.8 47.1c.17.91-.1 1.61-.63 1.61-.2 0-.43-.1-.7-.3l-5.34-4.28-1.78 3.07-9.2 15.79H38.84l-9.2-14.94-2.25-3.55-4.88 3.9c-.26.22-.5.31-.7.31-.53 0-.8-.7-.62-1.6l7.8-47.11c.06-.3.22-.59.46-.79 0 0 32.73-27.03 32.98-27.03h3.45m-3.45-5c-1.8 0-2.63.66-4.62 2.26a4373.98 4373.98 0 00-15.14 12.4c-8.22 6.76-16.4 13.52-16.4 13.52a6.35 6.35 0 00-2.21 3.82l-7.8 47.06a6.62 6.62 0 001.26 5.45 5.55 5.55 0 004.3 2.02c.95 0 2.4-.24 3.84-1.42l.48-.38 8.44 13.7a5 5 0 004.26 2.38h50.64a5 5 0 004.31-2.48l8.08-13.85.81.65a6 6 0 003.82 1.4c1.66 0 3.22-.74 4.29-2.02a6.62 6.62 0 001.26-5.45l-7.8-47.06-.01-.1a6.35 6.35 0 00-2.19-3.71A11965.35 11965.35 0 0074.3 19.46c-6.52-5.33-6.52-5.33-8.35-5.35h-3.52z"/><linearGradient id="d" gradientUnits="userSpaceOnUse" x1="64.15" y1="66.07" x2="64.15" y2="111.42"><stop offset=".11" stop-color="#d5d5d5"/><stop offset=".27" stop-color="#d1d1d1"/><stop offset=".43" stop-color="#c4c4c4"/><stop offset=".6" stop-color="#aeaeae"/><stop offset=".78" stop-color="#909090"/><stop offset=".95" stop-color="#6a6a6a"/><stop offset="1" stop-color="#5e5e5e"/></linearGradient><path fill="url(#d)" d="M38 111.42l-10.35-16.8 36.5-28.55 36.5 27.67-10.32 17.68z"/><path fill="#4F4F4F" d="M64.16 67.97l34.52 26.16-9.2 15.79H38.83l-9.2-14.94 34.52-27.01m-.03-3.79L62.3 65.6 27.78 92.63l-2.1 1.65 1.4 2.29 9.2 14.93.88 1.43H91.2l.87-1.49 9.2-15.79 1.34-2.3-2.12-1.6-34.52-26.16-1.84-1.4z"/><linearGradient id="e" gradientUnits="userSpaceOnUse" x1="61.26" y1="68.16" x2="26.5" y2="48.09"><stop offset=".11" stop-color="#d5d5d5"/><stop offset=".27" stop-color="#d1d1d1"/><stop offset=".43" stop-color="#c4c4c4"/><stop offset=".6" stop-color="#aeaeae"/><stop offset=".78" stop-color="#909090"/><stop offset=".95" stop-color="#6a6a6a"/><stop offset="1" stop-color="#5e5e5e"/></linearGradient><path fill="url(#e)" d="M21.82 97.14c-.63 0-1.2-.27-1.6-.75-.53-.65-.71-1.58-.51-2.64l7.8-47.07c.13-.69.48-1.28.99-1.7 33.14-27.37 33.17-27.37 33.93-27.37h1.5v45.16c0 .86-.38 1.67-1.04 2.21L23.45 96.51c-.52.42-1.07.63-1.63.63z"/><path fill="#4F4F4F" d="M62.43 19.1v43.67c0 .4-.18.8-.5 1.05L22.52 95.34c-.26.2-.5.3-.7.3-.53 0-.8-.7-.63-1.6l7.8-47.1c.07-.32.23-.6.47-.8 0 0 32.73-27.03 32.98-27.03m0-3h-.04c-1.13.01-1.13.01-7.12 4.9l-11.33 9.3c-8.22 6.76-16.4 13.52-16.4 13.52a4.35 4.35 0 00-1.5 2.53v.04l-.01.04-7.8 47.08a4.58 4.58 0 00.83 3.82c.69.83 1.7 1.3 2.75 1.3.63 0 1.6-.17 2.59-.97l39.4-31.5a4.35 4.35 0 001.63-3.4V16.12h-3z"/><g><linearGradient id="f" gradientUnits="userSpaceOnUse" x1="101.81" y1="48.09" x2="67.05" y2="68.16"><stop offset="0" stop-color="#5e5e5e"/><stop offset=".05" stop-color="#6a6a6a"/><stop offset=".22" stop-color="#909090"/><stop offset=".4" stop-color="#aeaeae"/><stop offset=".57" stop-color="#c4c4c4"/><stop offset=".73" stop-color="#d1d1d1"/><stop offset=".89" stop-color="#d5d5d5"/></linearGradient><path fill="url(#f)" d="M106.5 97.14c-.57 0-1.12-.21-1.64-.64L65.44 64.99a2.84 2.84 0 01-1.06-2.22V17.62l1.52-.01c.74 0 1.14.3 33.91 27.38.52.42.87 1.01.99 1.66l7.8 47.14c.2 1.02.02 1.96-.51 2.6-.4.48-.97.75-1.6.75z"/><path fill="#4F4F4F" d="M65.88 19.1c.25 0 32.98 27.04 32.98 27.04.24.2.4.48.47.79l7.8 47.1c.17.91-.1 1.61-.63 1.61-.2 0-.43-.1-.7-.3L66.39 63.81c-.32-.26-.5-.64-.5-1.05V19.11m0-3h-3v46.66c0 1.32.58 2.54 1.6 3.37l39.45 31.54c.98.8 1.94.96 2.57.96 1.06 0 2.06-.47 2.75-1.3.8-.98 1.1-2.34.83-3.83l-7.8-47.07v-.06c-.2-1-.72-1.9-1.5-2.54L84.38 30.3l-11.34-9.3c-6-4.9-6-4.9-7.16-4.9z"/></g><path d="M69.85 113.16H58.46l-.97-11.8a6.04 6.04 0 013.3-5.37 7.2 7.2 0 016.4-.08l.22.11c2.08 1 3.4 3.12 3.4 5.44l-.96 11.7z"/></g></svg>