<svg xmlns="http://www.w3.org/2000/svg" width="128" height="128"><g><path d="M65.6 17.6c.3 0 33 27 33 27 .3.2.4.5.5.8l7.8 47c.2 1-.1 1.7-.6 1.7-.2 0-.5-.1-.7-.3l-5.4-4.3-1.8 3-9.2 15.9H38.6l-9.2-15-2.2-3.5-5 3.9-.6.3c-.6 0-.8-.7-.6-1.6l7.8-47.1c0-.3.2-.6.4-.8 0 0 32.7-27 33-27h3.4m-3.4-5c-1.8 0-2.6.6-4.6 2.2a792 792 0 00-15.2 12.4L26 40.7a6.4 6.4 0 00-2.2 3.9l-7.8 47c-.3 2 .1 4 1.3 5.5 1 1.2 2.6 2 4.3 2a6 6 0 003.8-1.4l.5-.4 8.4 13.7a5 5 0 004.3 2.4h50.6a5 5 0 004.4-2.5l8-13.9.9.7a6 6 0 003.8 1.4c1.6 0 3.2-.8 4.3-2a6.6 6.6 0 001.2-5.5l-7.8-47v-.2c-.3-1.4-1-2.7-2.2-3.7L85.4 27.2 74.1 18c-6.6-5.3-6.6-5.3-8.4-5.3H62.2h-.1z"/><linearGradient id="d" gradientUnits="userSpaceOnUse" x1="64.1" y1="64.3" x2="64.1" y2="109.6"><stop offset=".1" stop-color="#d1ebff"/><stop offset=".3" stop-color="#cde8fe"/><stop offset=".5" stop-color="#c0e0fc"/><stop offset=".7" stop-color="#aad1f9"/><stop offset=".9" stop-color="#8cbef5"/><stop offset="1" stop-color="#70abf1"/></linearGradient><path fill="url(#d)" d="M38 109.6L27.5 92.8 64 64.3 100.6 92l-10.3 17.6z"/><path fill="#0072BC" d="M64 66.2l34.6 26.1-9.2 15.8H38.8l-9.2-14.9 34.5-27m0-3.8l-1.9 1.4-34.5 27-2.1 1.7 1.4 2.3 9.2 15 .9 1.3H91l.9-1.5 9.2-15.7 1.3-2.3-2-1.6-34.6-26.2-1.9-1.4z"/><linearGradient id="e" gradientUnits="userSpaceOnUse" x1="61.2" y1="66.4" x2="26.4" y2="46.3"><stop offset=".1" stop-color="#d1ebff"/><stop offset=".3" stop-color="#cde8fe"/><stop offset=".4" stop-color="#c0e0fc"/><stop offset=".6" stop-color="#aad1f9"/><stop offset=".8" stop-color="#8cbef5"/><stop offset=".9" stop-color="#70abf1"/></linearGradient><path fill="url(#e)" d="M21.7 95.4a2 2 0 01-1.6-.8c-.5-.6-.7-1.6-.5-2.6l7.8-47.1c.2-.7.5-1.3 1-1.7 33.2-27.4 33.2-27.4 34-27.4h1.5V61c0 .9-.4 1.7-1.1 2.2L23.4 94.7c-.5.4-1.1.7-1.7.7z"/><path fill="#0072BC" d="M62.4 17.3V61c0 .4-.2.8-.5 1L22.4 93.5c-.2.3-.5.4-.7.4-.5 0-.8-.7-.6-1.6L29 45a3839.6 3839.6 0 0133.4-27.8m0-3c-1.1 0-1.1 0-7.1 5l-11.3 9.2L27.5 42c-.8.7-1.3 1.6-1.5 2.6l-7.8 47.1c-.3 1.5 0 2.9.8 3.9.7.8 1.7 1.3 2.7 1.3a4 4 0 002.6-1l39.4-31.5c1-.9 1.7-2 1.7-3.4V14.3h-3z"/><g><linearGradient id="f" gradientUnits="userSpaceOnUse" x1="101.7" y1="46.3" x2="67" y2="66.4"><stop offset=".1" stop-color="#70abf1"/><stop offset=".2" stop-color="#8cbef5"/><stop offset=".4" stop-color="#aad1f9"/><stop offset=".6" stop-color="#c0e0fc"/><stop offset=".7" stop-color="#cde8fe"/><stop offset=".9" stop-color="#d1ebff"/></linearGradient><path fill="url(#f)" d="M106.4 95.4c-.5 0-1.1-.3-1.6-.7L65.4 63.2c-.7-.5-1.1-1.3-1.1-2.2V15.8h1.5c.8 0 1.2.3 34 27.4.5.4.8 1 1 1.7l7.7 47.1c.2 1 0 2-.5 2.6a2 2 0 01-1.6.8z"/><path fill="#0072BC" d="M65.8 17.3c.3 0 33 27 33 27 .2.3.4.5.4.8l7.8 47.2c.2.9 0 1.6-.6 1.6-.2 0-.4-.1-.7-.4L66.3 62c-.3-.2-.5-.6-.5-1V17.3m0-3h-3V61c0 1.3.6 2.5 1.6 3.4L104 95.9c1 .8 1.9 1 2.5 1 1 0 2-.5 2.8-1.3.8-1 1-2.4.8-3.9l-7.8-47v-.1c-.2-1-.7-1.9-1.5-2.6L84.3 28.6 73 19.2c-6-4.9-6-4.9-7.2-4.9z"/></g><path d="M69.8 111.4H58.4l-1-11.8a6 6 0 013.3-5.4c2-1 4.4-1 6.4 0h.2a6 6 0 013.4 5.5l-1 11.7z"/></g></svg>