<svg xmlns="http://www.w3.org/2000/svg" width="100" height="100"><path fill="#55A4B0" d="M7.242 92.904a5.374 5.374 0 01-5.369-5.368V6.869A5.375 5.375 0 017.242 1.5h80.667a5.374 5.374 0 015.368 5.369v80.667a5.373 5.373 0 01-5.368 5.368H7.242z"/><path fill="#C0E9FF" d="M87.909 3a3.874 3.874 0 013.87 3.869v80.667a3.873 3.873 0 01-3.87 3.868H7.242a3.872 3.872 0 01-3.869-3.868V6.869A3.874 3.874 0 017.242 3h80.667m0-3H7.242A6.869 6.869 0 00.373 6.869v80.667a6.868 6.868 0 006.869 6.868h80.667a6.869 6.869 0 006.87-6.868V6.869A6.87 6.87 0 0087.909 0z"/><path fill="#CCEFFE" d="M44.895 81.043a1.333 1.333 0 01-1.331-1.331v-7.493h-7.439a1.332 1.332 0 01-1.331-1.33v-5.31c0-.733.597-1.331 1.331-1.331h7.439v-7.439c0-.732.597-1.33 1.331-1.33h5.309c.733 0 1.331.598 1.331 1.33v7.439h7.492c.734 0 1.332.598 1.332 1.331v5.31c0 .733-.598 1.33-1.332 1.33h-7.492v7.493c0 .733-.598 1.331-1.331 1.331h-5.309z"/><path fill="#223948" d="M50.203 56.229c.32 0 .581.261.581.58v8.189h8.243c.32 0 .58.261.58.581v5.31c0 .32-.26.58-.58.58h-8.243v8.243c0 .32-.261.581-.581.581h-5.309a.581.581 0 01-.581-.581v-8.243h-8.189a.58.58 0 01-.581-.58v-5.31c0-.32.26-.581.581-.581h8.189v-8.189c0-.319.26-.58.581-.58h5.309m0-1.5h-5.309a2.084 2.084 0 00-2.081 2.08v6.689h-6.689a2.084 2.084 0 00-2.081 2.081v5.31c0 1.146.934 2.08 2.081 2.08h6.689v6.743c0 1.147.934 2.081 2.081 2.081h5.309a2.085 2.085 0 002.081-2.081v-6.743h6.743c1.146 0 2.08-.934 2.08-2.08v-5.31a2.084 2.084 0 00-2.08-2.081h-6.743v-6.689c0-1.147-.932-2.08-2.081-2.08z"/><g><g opacity=".15"><path d="M36.557 45.607a.56.56 0 01-.56-.56v-34.93a.56.56 0 01.56-.56h24.039a.56.56 0 01.559.56v34.93a.56.56 0 01-.559.56H36.557z"/><path d="M60.154 10.559v34.048H36.997V10.559h23.157m.442-2H36.557a1.56 1.56 0 00-1.56 1.56v34.93c0 .861.698 1.559 1.559 1.559h24.04a1.56 1.56 0 001.559-1.559v-34.93a1.56 1.56 0 00-1.559-1.56z"/><path d="M60.596 9.559a.56.56 0 01.559.56v34.93c0 .309-.25.559-.559.559h-24.04a.56.56 0 01-.559-.559v-34.93a.56.56 0 01.56-.56h24.039m0-1H36.557a1.56 1.56 0 00-1.56 1.56v34.93c0 .861.698 1.559 1.559 1.559h24.04a1.56 1.56 0 001.559-1.559v-34.93a1.56 1.56 0 00-1.559-1.56z"/></g><radialGradient id="a" cx="-483.666" cy="-225.802" r="15.389" gradientTransform="matrix(0 -1 -1.064 0 -192.677 -457.084)" gradientUnits="userSpaceOnUse"><stop offset="0" stop-color="#32b4ba"/><stop offset=".163" stop-color="#30abba"/><stop offset=".429" stop-color="#2b93ba"/><stop offset=".762" stop-color="#236bba"/><stop offset="1" stop-color="#1d4bba"/></radialGradient><path fill="url(#a)" d="M35.557 44.607a.56.56 0 01-.56-.56V9.118a.56.56 0 01.56-.56h24.039a.56.56 0 01.559.56v34.93a.56.56 0 01-.559.56l-24.039-.001z"/><path fill="#66C2E2" d="M59.154 9.559v34.048H35.997V9.559h23.157m.442-2H35.557a1.56 1.56 0 00-1.56 1.56v34.93c0 .861.698 1.559 1.559 1.559h24.04a1.56 1.56 0 001.559-1.559V9.118a1.56 1.56 0 00-1.559-1.559z"/><path fill="#414042" d="M59.596 8.559a.56.56 0 01.559.56v34.93c0 .309-.25.559-.559.559h-24.04a.56.56 0 01-.559-.559V9.118a.56.56 0 01.56-.56l24.039.001m0-1H35.557a1.56 1.56 0 00-1.56 1.56v34.93c0 .861.698 1.559 1.559 1.559h24.04a1.56 1.56 0 001.559-1.559V9.118a1.56 1.56 0 00-1.559-1.559z"/></g><g><linearGradient id="b" gradientUnits="userSpaceOnUse" x1="143.493" y1="-163.526" x2="143.493" y2="-159.407" gradientTransform="matrix(1 0 0 -1 -96 -130)"><stop offset="0" stop-color="#70aefe"/><stop offset=".16" stop-color="#83bcfe"/><stop offset=".527" stop-color="#abd7fe"/><stop offset=".82" stop-color="#c3e9fe"/><stop offset="1" stop-color="#cceffe"/></linearGradient><path fill="url(#b)" d="M47.463 33.522c-1.363-.169-1.974-1.155-1.974-2.058.001-.903.61-1.889 1.974-2.057 1.424.168 2.033 1.153 2.034 2.057 0 .902-.61 1.889-1.974 2.058l-.03.004-.03-.004z"/><path fill="#223948" d="M47.493 29.655c2.338.289 2.338 3.33 0 3.618-2.338-.288-2.338-3.329 0-3.618m0-.504l-.061.008c-1.506.187-2.192 1.325-2.192 2.306 0 .979.686 2.119 2.192 2.306l.061.007.062-.007c1.506-.187 2.192-1.326 2.192-2.306s-.686-2.119-2.192-2.306l-.062-.008z"/><g><linearGradient id="c" gradientUnits="userSpaceOnUse" x1="143.545" y1="-157.591" x2="143.545" y2="-147.182" gradientTransform="matrix(1 0 0 -1 -96 -130)"><stop offset="0" stop-color="#70aefe"/><stop offset=".16" stop-color="#83bcfe"/><stop offset=".527" stop-color="#abd7fe"/><stop offset=".82" stop-color="#c3e9fe"/><stop offset="1" stop-color="#cceffe"/></linearGradient><path fill="url(#c)" d="M45.815 27.591v-.25c0-1.322.986-2.581 1.831-3.258 1.03-.823 1.645-1.709 1.645-2.369 0-1.097-1.023-1.261-1.633-1.261-1.058 0-1.787.551-2.229 1.683l-.105.271-2.88-1.661.08-.201c.843-2.106 2.801-3.363 5.238-3.363 1.277 0 2.422.387 3.401 1.148.983.766 1.481 1.834 1.481 3.176 0 1.851-1.193 2.985-2.153 3.896-.709.673-1.321 1.254-1.321 1.938v.25l-3.355.001z"/><path fill="#223948" d="M47.762 17.431c1.241 0 2.317.372 3.248 1.097.932.724 1.387 1.717 1.387 2.979 0 3.083-3.477 4.014-3.477 5.834h-2.854c0-1.221.91-2.399 1.738-3.062.828-.663 1.737-1.655 1.737-2.565 0-.972-.703-1.51-1.882-1.51-1.158 0-1.986.62-2.461 1.841l-2.441-1.406c.826-2.071 2.77-3.208 5.005-3.208m0-.5c-2.506 0-4.602 1.35-5.471 3.521l-.161.403.375.216 2.441 1.407.504.291.211-.543c.399-1.024 1.052-1.522 1.996-1.522.917 0 1.382.34 1.382 1.01 0 .577-.594 1.41-1.55 2.175-.931.745-1.925 2.043-1.925 3.452v.5h3.854v-.5c0-.576.576-1.123 1.243-1.756.995-.944 2.231-2.12 2.231-4.078 0-1.424-.531-2.559-1.578-3.373-1.022-.799-2.218-1.203-3.552-1.203z"/></g></g></svg>