<svg xmlns="http://www.w3.org/2000/svg" width="100" height="100"><style>.st0{fill:#7a7a7a}.st8{fill:#bababa}.st10{fill:#223948}.st55{fill:#414042}</style><g id="Layer_2"><path d="M6.962 92.789a5.375 5.375 0 01-5.37-5.369V6.752a5.375 5.375 0 015.37-5.369h80.666a5.375 5.375 0 015.37 5.369V87.42a5.375 5.375 0 01-5.37 5.369H6.962z" fill="#55a4b0"/><path d="M87.628 2.883a3.873 3.873 0 013.869 3.87V87.42a3.873 3.873 0 01-3.869 3.869H6.962a3.874 3.874 0 01-3.87-3.869V6.753a3.874 3.874 0 013.87-3.87h80.666m0-3H6.962a6.87 6.87 0 00-6.87 6.87V87.42a6.87 6.87 0 006.87 6.869h80.666a6.87 6.87 0 006.869-6.869V6.753a6.87 6.87 0 00-6.869-6.87z" fill="#c0e9ff"/><g id="Development_10_"><g opacity=".15"><path d="M36.275 49.688a.56.56 0 01-.559-.56v-34.93a.56.56 0 01.559-.559h24.039a.56.56 0 01.559.559v34.93a.56.56 0 01-.559.56H36.275z"/><path d="M59.873 14.64v34.048H36.717V14.64h23.156m.441-2H36.275c-.861 0-1.559.698-1.559 1.559v34.93c0 .861.697 1.56 1.559 1.56h24.039a1.56 1.56 0 001.559-1.56v-34.93c0-.861-.698-1.559-1.559-1.559z"/><path d="M60.314 13.64a.56.56 0 01.559.559v34.93a.56.56 0 01-.559.56H36.275a.56.56 0 01-.559-.56v-34.93a.56.56 0 01.559-.559h24.039m0-1H36.275c-.861 0-1.559.698-1.559 1.559v34.93c0 .861.697 1.56 1.559 1.56h24.039a1.56 1.56 0 001.559-1.56v-34.93c0-.861-.698-1.559-1.559-1.559z"/></g><radialGradient id="SVGID_1_" cx="34.456" cy="30.664" r="15.387" gradientTransform="matrix(0 -1 1.064 0 14.669 65.12)" gradientUnits="userSpaceOnUse"><stop offset="0" stop-color="#32b4ba"/><stop offset=".163" stop-color="#30abba"/><stop offset=".429" stop-color="#2b93ba"/><stop offset=".762" stop-color="#236bba"/><stop offset="1" stop-color="#1d4bba"/></radialGradient><path d="M35.275 48.688a.56.56 0 01-.559-.56v-34.93a.56.56 0 01.559-.559h24.039a.56.56 0 01.559.559v34.93a.56.56 0 01-.559.56H35.275z" fill="url(#SVGID_1_)"/><path d="M58.873 13.64v34.048H35.717V13.64h23.156m.441-2H35.275c-.861 0-1.559.698-1.559 1.559v34.93c0 .861.697 1.56 1.559 1.56h24.039a1.56 1.56 0 001.559-1.56v-34.93c0-.861-.698-1.559-1.559-1.559z" fill="#66c2e2"/><path class="st55" d="M59.314 12.64a.56.56 0 01.559.559v34.93a.56.56 0 01-.559.56H35.275a.56.56 0 01-.559-.56v-34.93a.56.56 0 01.559-.559h24.039m0-1H35.275c-.861 0-1.559.698-1.559 1.559v34.93c0 .861.697 1.56 1.559 1.56h24.039a1.56 1.56 0 001.559-1.56v-34.93c0-.861-.698-1.559-1.559-1.559z"/></g><g id="Question_5_"><linearGradient id="SVGID_2_" gradientUnits="userSpaceOnUse" x1="47.212" y1="37.606" x2="47.212" y2="33.488"><stop offset="0" stop-color="#70aefe"/><stop offset=".16" stop-color="#83bcfe"/><stop offset=".527" stop-color="#abd7fe"/><stop offset=".82" stop-color="#c3e9fe"/><stop offset="1" stop-color="#cceffe"/></linearGradient><path d="M47.182 37.604c-1.363-.168-1.973-1.156-1.973-2.059 0-.901.609-1.889 1.973-2.057 1.424.168 2.034 1.155 2.034 2.057 0 .902-.61 1.891-1.973 2.059l-.031.003-.03-.003z" fill="url(#SVGID_2_)"/><path class="st10" d="M47.212 33.736c2.338.288 2.338 3.329 0 3.618-2.338-.289-2.338-3.33 0-3.618m0-.504l-.062.008c-1.506.186-2.191 1.325-2.191 2.305 0 .98.686 2.12 2.191 2.306l.062.008.062-.008c1.506-.186 2.191-1.325 2.191-2.306 0-.979-.686-2.119-2.191-2.305l-.062-.008z"/><g><linearGradient id="SVGID_3_" gradientUnits="userSpaceOnUse" x1="47.264" y1="31.67" x2="47.264" y2="21.261"><stop offset="0" stop-color="#70aefe"/><stop offset=".16" stop-color="#83bcfe"/><stop offset=".527" stop-color="#abd7fe"/><stop offset=".82" stop-color="#c3e9fe"/><stop offset="1" stop-color="#cceffe"/></linearGradient><path d="M45.535 31.67v-.25c0-1.32.945-2.547 1.831-3.256 1.029-.824 1.644-1.709 1.644-2.371 0-1.096-1.022-1.26-1.632-1.26-1.059 0-1.788.551-2.229 1.682l-.105.271-2.881-1.659.081-.202c.842-2.106 2.8-3.364 5.238-3.364 1.276 0 2.421.387 3.401 1.149.983.766 1.482 1.833 1.482 3.176 0 1.852-1.195 2.986-2.155 3.896-.709.674-1.32 1.254-1.32 1.938v.25h-3.355z" fill="url(#SVGID_3_)"/><path class="st10" d="M47.481 21.512c1.24 0 2.316.372 3.247 1.096.932.725 1.387 1.718 1.387 2.979 0 3.082-3.476 4.013-3.476 5.834h-2.855c0-1.221.911-2.4 1.738-3.062.827-.661 1.737-1.654 1.737-2.564 0-.973-.703-1.511-1.883-1.511-1.158 0-1.985.621-2.461 1.842l-2.441-1.407c.828-2.07 2.773-3.207 5.007-3.207m0-.5c-2.506 0-4.603 1.349-5.471 3.521l-.161.402.375.217 2.441 1.406.504.291.212-.542c.399-1.025 1.052-1.523 1.995-1.523.918 0 1.383.34 1.383 1.011 0 .576-.594 1.409-1.55 2.175-.931.744-1.926 2.042-1.926 3.452v.5h3.855v-.5c0-.576.575-1.123 1.242-1.757.995-.944 2.233-2.12 2.233-4.077 0-1.424-.531-2.559-1.579-3.374-1.023-.798-2.22-1.202-3.553-1.202z"/></g></g><g><path class="st8" d="M47.167 87.039c-4.641 0-8.276-2.339-8.276-5.324 0-3.694 3.558-6.48 8.276-6.48 4.818 0 8.314 2.726 8.314 6.48.001 2.985-3.651 5.324-8.314 5.324z"/><path class="st55" d="M47.167 76.234c4.306 0 7.314 2.316 7.314 5.48 0 2.197-3.008 4.324-7.314 4.324-4.307 0-7.276-2.127-7.276-4.324.001-3.009 2.97-5.48 7.276-5.48m0-2c-5.288 0-9.276 3.216-9.276 7.48 0 3.546 4.074 6.324 9.276 6.324 5.223 0 9.314-2.778 9.314-6.324.001-4.334-3.917-7.48-9.314-7.48z"/><path class="st0" d="M54.364 80.768c.148 1.186.479 2.569-2.625 4.315-.17.098.942-.351.838-1.67-.053-.677-.469-1.248-.668-1.21-.662.129-2.214 1.082-4.742 1.055-3.379-.034-6.118-1.435-6.118-3.204s2.739-3.204 6.118-3.204 6.882 1.404 7.197 3.918z"/><path class="st8" d="M47.167 82.638c-2.333 0-5.221-.708-6.415-2.288-1.253-1.663-1.861-4.145-1.861-7.588 0-6.413 4.3-9.334 8.295-9.334 5.504 0 8.295 3.141 8.295 9.334 0 2.145-.295 6.028-2.274 7.936-1.259 1.215-3.517 1.94-6.04 1.94z"/><path class="st55" d="M47.187 64.428c3.28 0 7.295.997 7.295 8.334 0 3.202-.665 5.959-1.968 7.216-1.081 1.042-3.161 1.66-5.346 1.66-2.124 0-4.689-.663-5.617-1.89-1.132-1.503-1.659-3.85-1.659-6.985 0-6.179 4.169-8.335 7.295-8.335m0-2c-4.477 0-9.295 3.234-9.295 10.334 0 3.668.674 6.347 2.062 8.188 1.499 1.984 4.823 2.687 7.214 2.687 2.775 0 5.293-.83 6.734-2.22 2.245-2.164 2.58-6.352 2.58-8.655 0-4.714-1.613-10.334-9.295-10.334z"/><path class="st0" d="M54.482 72.762c.149 5.094-1.968 7.216-1.968 7.216s1.003-3.744 1.005-5.871c.002-2.558-1.134-5.471-1.894-4.899-2.199 1.661-4.824 1.236-6.523 1.043-1.869-.212-3.752-2.793-3.499-3.18 1.806-2.76 2.458-2.642 5.584-2.642 3.28-.001 7.063.456 7.295 8.333z"/><g><path class="st8" d="M47.167 69.785c-5.185 0-7.118-4.367-7.118-7.119 0-5.013 2.535-7.773 7.137-7.773 4.644 0 7.099 2.688 7.099 7.773.001 3.428-2.227 7.119-7.118 7.119z"/><path class="st55" d="M47.187 55.892c3.379 0 6.099 1.504 6.099 6.773 0 2.567-1.505 6.119-6.118 6.119-4.612 0-6.118-3.938-6.118-6.119 0-5.152 2.758-6.773 6.137-6.773m0-2c-5.171 0-8.137 3.198-8.137 8.773 0 1.751.649 3.652 1.735 5.085 1.049 1.384 3.008 3.034 6.382 3.034 5.578 0 8.118-4.208 8.118-8.119.001-5.657-2.875-8.773-8.098-8.773z"/></g><path class="st0" d="M53.286 62.666c0 1.445-.478 3.199-1.715 4.459-.962.98 2.66-4.227-.537-7.887-3.349-3.831-8.356-1.719-8.356-1.719s1.305-1.627 4.509-1.627c3.379 0 6.099 1.504 6.099 6.774z"/></g></g></svg>