<svg xmlns="http://www.w3.org/2000/svg" width="100" height="100"><path fill="#55A4B0" d="M6.869 92.904A5.374 5.374 0 011.5 87.536V6.869A5.375 5.375 0 016.869 1.5h80.667a5.374 5.374 0 015.368 5.369v80.667a5.373 5.373 0 01-5.368 5.368H6.869z"/><path fill="#C0E9FF" d="M87.536 3a3.873 3.873 0 013.868 3.869v80.667a3.872 3.872 0 01-3.868 3.868H6.869A3.872 3.872 0 013 87.536V6.869A3.874 3.874 0 016.869 3h80.667m0-3H6.869A6.869 6.869 0 000 6.869v80.667a6.868 6.868 0 006.869 6.868h80.667a6.867 6.867 0 006.868-6.868V6.869A6.868 6.868 0 0087.536 0z"/><path fill="#CCEFFE" d="M44.242 81.043a1.333 1.333 0 01-1.331-1.331v-7.493h-7.439a1.332 1.332 0 01-1.331-1.33v-5.31c0-.733.597-1.331 1.331-1.331h7.439v-7.439c0-.732.597-1.33 1.331-1.33h5.309c.734 0 1.331.598 1.331 1.33v7.439h7.492c.733 0 1.331.598 1.331 1.331v5.31c0 .733-.598 1.33-1.331 1.33h-7.492v7.493c0 .733-.597 1.331-1.331 1.331h-5.309z"/><path fill="#223948" d="M49.551 56.229c.321 0 .581.261.581.58v8.189h8.242c.321 0 .581.261.581.581v5.31c0 .32-.26.58-.581.58h-8.242v8.243c0 .32-.26.581-.581.581h-5.309a.581.581 0 01-.581-.581v-8.243h-8.189a.58.58 0 01-.581-.58v-5.31c0-.32.26-.581.581-.581h8.189v-8.189c0-.319.26-.58.581-.58h5.309m0-1.5h-5.309a2.084 2.084 0 00-2.081 2.08v6.689h-6.689a2.084 2.084 0 00-2.081 2.081v5.31c0 1.146.934 2.08 2.081 2.08h6.689v6.743c0 1.147.934 2.081 2.081 2.081h5.309a2.085 2.085 0 002.081-2.081v-6.743h6.742a2.084 2.084 0 002.081-2.08v-5.31a2.084 2.084 0 00-2.081-2.081h-6.742v-6.689c0-1.147-.934-2.08-2.081-2.08z"/><g><radialGradient id="a" cx="82.303" cy="-177.046" r="13.537" gradientTransform="matrix(.9434 0 0 -.9434 -47.805 -140.58)" gradientUnits="userSpaceOnUse"><stop offset=".297" stop-color="#f6ffff"/><stop offset="1" stop-color="#cceffe"/></radialGradient><path fill="url(#a)" d="M20.025 39.215a2.958 2.958 0 01-2.956-2.955V16.63a2.958 2.958 0 012.956-2.955h19.629a2.958 2.958 0 012.956 2.955v19.63a2.958 2.958 0 01-2.956 2.955H20.025z"/><path fill="#9CBBD0" d="M39.655 14.175a2.459 2.459 0 012.456 2.455v19.63a2.458 2.458 0 01-2.456 2.455h-19.63a2.459 2.459 0 01-2.456-2.455V16.63a2.458 2.458 0 012.456-2.455h19.63m0-1h-19.63a3.466 3.466 0 00-3.456 3.455v19.63c0 1.9 1.555 3.455 3.456 3.455h19.63c1.9 0 3.456-1.555 3.456-3.455V16.63a3.466 3.466 0 00-3.456-3.455z"/><path fill="#223948" d="M39.655 13.175c1.9 0 3.456 1.555 3.456 3.455v19.63c0 1.9-1.555 3.455-3.456 3.455h-19.63a3.466 3.466 0 01-3.456-3.455V16.63c0-1.9 1.555-3.455 3.456-3.455h19.63m0-1.5h-19.63a4.962 4.962 0 00-4.956 4.955v19.63a4.961 4.961 0 004.956 4.955h19.63a4.962 4.962 0 004.956-4.955V16.63a4.962 4.962 0 00-4.956-4.955z"/><path fill="#7290A7" d="M37.751 21.387a3.122 3.122 0 01-3.119-3.119c0-1.72 1.399-3.119 3.119-3.119s3.119 1.399 3.119 3.119a3.122 3.122 0 01-3.119 3.119z"/><path fill="#223948" d="M37.751 15.523a2.745 2.745 0 11-.001 5.49 2.745 2.745 0 01.001-5.49m0-.75a3.497 3.497 0 00-3.494 3.494 3.497 3.497 0 003.494 3.494 3.498 3.498 0 003.494-3.494 3.497 3.497 0 00-3.494-3.494z"/><path fill="#4F6A7F" d="M40.251 17.136c.062.096-1.403-1.961-3.567-.607-2 1.25-1.081 3.424-1.035 3.502.01.019-.065-.057-.217-.297-1.239-1.96.313-4.888 3.605-4.133 1.029.99 1.177 1.478 1.214 1.535z"/><path fill="#7290A7" d="M21.396 37.849c-.767 0-1.541-.28-2.237-.81l-.041-.031-.031-.04c-.865-1.137-1.048-2.49-.488-3.621a3.103 3.103 0 012.796-1.735c.767 0 1.541.28 2.237.81l.041.031.031.04c.865 1.137 1.048 2.49.488 3.621a3.101 3.101 0 01-2.796 1.735z"/><path fill="#223948" d="M21.396 31.986c.643 0 1.336.221 2.01.733 1.724 2.264.147 4.754-2.01 4.754-.642 0-1.336-.221-2.01-.733-1.723-2.263-.147-4.754 2.01-4.754m.001-.75a3.473 3.473 0 00-3.132 1.944c-.625 1.261-.428 2.762.525 4.014l.062.081.081.062c.762.58 1.614.887 2.464.887a3.475 3.475 0 003.132-1.944c.625-1.261.428-2.762-.526-4.014l-.061-.081-.081-.062c-.762-.58-1.614-.887-2.464-.887z"/><path fill="#4F6A7F" d="M23.897 33.598c.062.096-1.403-1.96-3.567-.607-2 1.25-1.081 3.424-1.036 3.502.011.019-.064-.056-.216-.296-1.239-1.96.312-4.889 3.604-4.133 1.03.989 1.178 1.478 1.215 1.534z"/><path fill="#7290A7" d="M29.84 29.563c-.768 0-1.541-.28-2.237-.81l-.041-.031-.031-.04c-.866-1.137-1.048-2.49-.488-3.62a3.101 3.101 0 012.796-1.736c.768 0 1.541.28 2.237.811l.041.03.031.04c.865 1.137 1.048 2.49.488 3.621a3.103 3.103 0 01-2.796 1.735z"/><path fill="#223948" d="M29.84 23.701c.643 0 1.336.221 2.01.733 1.724 2.264.147 4.754-2.01 4.754-.643 0-1.336-.221-2.01-.733-1.724-2.264-.148-4.754 2.01-4.754m0-.75a3.475 3.475 0 00-3.132 1.944c-.625 1.262-.428 2.762.526 4.014l.062.081.081.062c.762.58 1.614.887 2.464.887a3.475 3.475 0 003.132-1.944c.625-1.261.428-2.762-.525-4.014l-.062-.081-.081-.062c-.763-.58-1.615-.887-2.465-.887z"/><path fill="#4F6A7F" d="M32.34 25.313c.062.095-1.403-1.961-3.567-.608-2 1.251-1.081 3.424-1.036 3.503.01.018-.065-.057-.217-.297-1.238-1.96.312-4.889 3.604-4.133 1.031.99 1.179 1.479 1.216 1.535z"/><radialGradient id="b" cx="118.747" cy="-177.046" r="13.537" gradientTransform="matrix(.9434 0 0 -.9434 -47.805 -140.58)" gradientUnits="userSpaceOnUse"><stop offset=".297" stop-color="#f6ffff"/><stop offset="1" stop-color="#cceffe"/></radialGradient><path fill="url(#b)" d="M54.406 39.215a2.958 2.958 0 01-2.956-2.955V16.63a2.958 2.958 0 012.956-2.955h19.629a2.958 2.958 0 012.956 2.955v19.63a2.958 2.958 0 01-2.956 2.955H54.406z"/><path fill="#9CBBD0" d="M74.035 14.175a2.459 2.459 0 012.456 2.455v19.63a2.459 2.459 0 01-2.456 2.455H54.406a2.459 2.459 0 01-2.456-2.455V16.63a2.458 2.458 0 012.456-2.455h19.629m0-1H54.406a3.466 3.466 0 00-3.456 3.455v19.63c0 1.9 1.555 3.455 3.456 3.455h19.629c1.9 0 3.456-1.555 3.456-3.455V16.63a3.465 3.465 0 00-3.456-3.455z"/><path fill="#223948" d="M74.035 13.175c1.9 0 3.456 1.555 3.456 3.455v19.63c0 1.9-1.556 3.455-3.456 3.455H54.406a3.466 3.466 0 01-3.456-3.455V16.63c0-1.9 1.555-3.455 3.456-3.455h19.629m0-1.5H54.406a4.962 4.962 0 00-4.956 4.955v19.63a4.961 4.961 0 004.956 4.955h19.629a4.962 4.962 0 004.956-4.955V16.63a4.96 4.96 0 00-4.956-4.955z"/><g><path fill="#7290A7" d="M72.253 21.387a3.122 3.122 0 01-3.119-3.119c0-1.72 1.399-3.119 3.119-3.119s3.119 1.399 3.119 3.119a3.122 3.122 0 01-3.119 3.119z"/><path fill="#223948" d="M72.253 15.523a2.745 2.745 0 11-.001 5.49 2.745 2.745 0 01.001-5.49m0-.75a3.497 3.497 0 00-3.494 3.494c0 1.927 1.567 3.494 3.494 3.494s3.494-1.567 3.494-3.494a3.497 3.497 0 00-3.494-3.494z"/></g><g><path fill="#4F6A7F" d="M74.753 17.136c.062.096-1.403-1.961-3.567-.607-2 1.25-1.08 3.424-1.035 3.502.01.019-.065-.057-.217-.297-1.238-1.96.312-4.888 3.604-4.133 1.03.99 1.178 1.478 1.215 1.535z"/></g><g><path fill="#7290A7" d="M55.898 37.849c-.768 0-1.541-.28-2.237-.81l-.041-.031-.031-.04c-.864-1.137-1.048-2.49-.487-3.621a3.102 3.102 0 012.795-1.735c.768 0 1.541.28 2.237.81l.041.031.031.04c.864 1.137 1.048 2.49.487 3.621a3.1 3.1 0 01-2.795 1.735z"/><path fill="#223948" d="M55.898 31.986c.642 0 1.336.221 2.01.733 1.724 2.264.146 4.754-2.01 4.754-.644 0-1.336-.221-2.01-.733-1.723-2.263-.147-4.754 2.01-4.754m0-.75a3.476 3.476 0 00-3.133 1.944c-.625 1.261-.428 2.762.525 4.014l.062.081.08.062c.762.58 1.614.887 2.465.887a3.476 3.476 0 003.133-1.944c.625-1.261.428-2.762-.525-4.014l-.062-.081-.08-.062c-.761-.58-1.614-.887-2.465-.887z"/></g><g><path fill="#4F6A7F" d="M58.398 33.598c.062.096-1.403-1.96-3.567-.607-2 1.25-1.081 3.424-1.036 3.502.012.019-.064-.056-.216-.296-1.239-1.96.312-4.889 3.604-4.133 1.03.989 1.178 1.478 1.215 1.534z"/></g><g><path fill="#7290A7" d="M55.898 21.387a3.105 3.105 0 01-2.797-1.736c-.56-1.131-.377-2.483.488-3.62l.031-.04.041-.03c.695-.531 1.47-.812 2.236-.812 1.194 0 2.267.666 2.797 1.736.56 1.131.377 2.483-.488 3.62l-.031.04-.041.03c-.695.531-1.468.812-2.236.812z"/><path fill="#223948" d="M55.898 15.523c2.156 0 3.732 2.491 2.01 4.754-.674.514-1.368.734-2.01.734-2.158 0-3.734-2.491-2.01-4.754.674-.513 1.368-.734 2.01-.734m0-.75c-.852 0-1.703.308-2.465.888l-.082.062-.062.081c-.954 1.252-1.149 2.752-.524 4.013a3.472 3.472 0 003.131 1.945c.851 0 1.703-.307 2.465-.888l.08-.062.062-.08c.954-1.253 1.15-2.753.525-4.014a3.472 3.472 0 00-3.13-1.945z"/></g><g><path fill="#4F6A7F" d="M58.398 17.136c.062.096-1.403-1.961-3.567-.607-2 1.25-1.081 3.424-1.036 3.502.012.019-.064-.057-.216-.297-1.239-1.96.312-4.888 3.604-4.133 1.03.99 1.178 1.478 1.215 1.535z"/></g><g><path fill="#7290A7" d="M72.253 37.849a3.1 3.1 0 01-2.796-1.736c-.561-1.13-.378-2.483.486-3.62l.031-.04.041-.031c.696-.529 1.471-.81 2.237-.81 1.194 0 2.267.665 2.796 1.735.561 1.131.377 2.484-.488 3.621l-.031.04-.041.031c-.694.529-1.467.81-2.235.81z"/><path fill="#223948" d="M72.253 31.986c2.158 0 3.733 2.49 2.011 4.754-.675.513-1.367.733-2.011.733-2.157 0-3.733-2.49-2.01-4.754.674-.512 1.366-.733 2.01-.733m0-.75c-.851 0-1.703.307-2.464.887l-.081.062-.062.081c-.955 1.252-1.15 2.753-.526 4.014a3.475 3.475 0 003.132 1.944c.85 0 1.702-.307 2.464-.887l.081-.062.062-.081c.953-1.252 1.149-2.753.524-4.014a3.47 3.47 0 00-3.13-1.944z"/></g><g><path fill="#4F6A7F" d="M74.753 33.598c.062.096-1.403-1.96-3.567-.607-2 1.25-1.08 3.424-1.035 3.502.01.019-.065-.056-.217-.296-1.238-1.96.312-4.889 3.604-4.133 1.03.989 1.178 1.478 1.215 1.534z"/></g></g></svg>