<svg xmlns="http://www.w3.org/2000/svg" width="100" height="100"><path fill="#55A4B0" d="M6.869 92.904A5.374 5.374 0 011.5 87.536V6.869A5.375 5.375 0 016.869 1.5h80.667a5.374 5.374 0 015.368 5.369v80.667a5.373 5.373 0 01-5.368 5.368H6.869z"/><path fill="#C0E9FF" d="M87.536 3a3.874 3.874 0 013.87 3.869v80.667a3.873 3.873 0 01-3.87 3.868H6.869A3.872 3.872 0 013 87.536V6.869A3.874 3.874 0 016.869 3h80.667m0-3H6.869A6.869 6.869 0 000 6.869v80.667a6.868 6.868 0 006.869 6.868h80.667a6.869 6.869 0 006.87-6.868V6.869A6.87 6.87 0 0087.536 0z"/><path fill="#CCEFFE" d="M44.521 81.043a1.333 1.333 0 01-1.331-1.331v-7.493h-7.439a1.332 1.332 0 01-1.331-1.33v-5.31c0-.733.597-1.331 1.331-1.331h7.439v-7.439c0-.732.597-1.33 1.331-1.33h5.309c.734 0 1.331.598 1.331 1.33v7.439h7.493c.734 0 1.33.598 1.33 1.331v5.31c0 .733-.596 1.33-1.33 1.33h-7.493v7.493c0 .733-.597 1.331-1.331 1.331h-5.309z"/><path fill="#223948" d="M49.83 56.229c.321 0 .581.261.581.58v8.189h8.243c.32 0 .58.261.58.581v5.31c0 .32-.26.58-.58.58h-8.243v8.243c0 .32-.26.581-.581.581h-5.309a.581.581 0 01-.581-.581v-8.243h-8.189a.58.58 0 01-.581-.58v-5.31c0-.32.26-.581.581-.581h8.189v-8.189c0-.319.26-.58.581-.58h5.309m0-1.5h-5.309a2.084 2.084 0 00-2.081 2.08v6.689h-6.689a2.084 2.084 0 00-2.081 2.081v5.31c0 1.146.934 2.08 2.081 2.08h6.689v6.743c0 1.147.934 2.081 2.081 2.081h5.309a2.085 2.085 0 002.081-2.081v-6.743h6.743c1.146 0 2.08-.934 2.08-2.08v-5.31a2.084 2.084 0 00-2.08-2.081h-6.743v-6.689c0-1.147-.932-2.08-2.081-2.08z"/><g><path fill="#CCEFFE" d="M48.767 48.203c-5.232 0-9.331-2.614-9.331-5.951 0-1.4.468-2.726 1.36-3.874-.915-1.814-1.36-4.238-1.36-7.378 0-3.024.847-5.574 2.459-7.434-.718-1.27-1.133-2.761-1.133-4.127 0-5.646 2.851-8.757 8.027-8.757 5.223 0 7.984 3.028 7.984 8.757a8.85 8.85 0 01-.854 3.788c1.477 1.765 2.223 4.374 2.223 7.772 0 2.972-.484 5.523-1.375 7.296a6.325 6.325 0 011.375 3.956c.001 3.338-4.119 5.952-9.375 5.952z"/><path fill="#223948" d="M48.789 11.683c3.869 0 6.984 1.724 6.984 7.757 0 1.245-.314 2.69-1.073 3.945 1.442 1.383 2.442 3.707 2.442 7.615 0 3.074-.543 5.775-1.596 7.421 1.014 1.041 1.596 2.353 1.596 3.831 0 2.515-3.445 4.951-8.375 4.951s-8.331-2.437-8.331-4.951c0-1.404.572-2.701 1.574-3.751-1.068-1.723-1.574-4.234-1.574-7.501 0-3.452 1.14-5.801 2.72-7.309-.992-1.402-1.394-3.057-1.394-4.252 0-5.9 3.158-7.756 7.027-7.756m0-2c-5.737 0-9.027 3.556-9.027 9.757 0 1.316.342 2.734.946 4.008-1.193 1.587-2.272 4.004-2.272 7.553 0 2.993.396 5.389 1.208 7.271a7.159 7.159 0 00-1.208 3.981c0 3.897 4.538 6.951 10.331 6.951 5.818 0 10.375-3.054 10.375-6.951a7.27 7.27 0 00-1.225-4.068c.795-1.869 1.225-4.356 1.225-7.184 0-3.342-.695-5.995-2.069-7.914.456-1.143.7-2.397.7-3.646 0-6.294-3.19-9.758-8.984-9.758z"/><path fill="#CCEFFE" d="M48.767 47.703c-4.87 0-8.831-2.445-8.831-5.451 0-3.862 3.796-6.775 8.831-6.775 5.143 0 8.875 2.85 8.875 6.775.001 3.006-3.981 5.451-8.875 5.451z"/><path fill="#223948" d="M48.767 35.977c4.931 0 8.375 2.651 8.375 6.275 0 2.515-3.445 4.951-8.375 4.951s-8.331-2.437-8.331-4.951c0-3.447 3.4-6.275 8.331-6.275m0-1c-5.319 0-9.331 3.128-9.331 7.275 0 3.337 4.099 5.951 9.331 5.951 5.256 0 9.375-2.614 9.375-5.951.001-4.216-3.942-7.275-9.375-7.275z"/><g><path fill="#CCEFFE" d="M48.767 41.663c-2.43 0-5.604-.74-6.83-2.365-1.347-1.785-2.001-4.499-2.001-8.298 0-6.9 4.589-10.044 8.853-10.044 5.958 0 8.854 3.285 8.854 10.044 0 4.005-.877 7.147-2.406 8.623-1.305 1.258-3.785 2.04-6.47 2.04z"/><path fill="#223948" d="M48.789 21.456c3.757 0 8.354 1.144 8.354 9.544 0 3.667-.761 6.823-2.254 8.263-1.236 1.193-3.619 1.9-6.122 1.9-2.432 0-5.37-.76-6.431-2.166-1.297-1.72-1.9-4.408-1.9-7.997 0-7.074 4.773-9.544 8.353-9.544m0-1c-4.504 0-9.353 3.3-9.353 10.544 0 3.912.688 6.725 2.102 8.6 1.329 1.761 4.679 2.563 7.229 2.563 2.809 0 5.42-.836 6.816-2.181 1.626-1.568 2.56-4.843 2.56-8.982 0-7.095-3.06-10.544-9.354-10.544z"/></g><g><path fill="#CCEFFE" d="M48.767 26.945c-5.468 0-7.505-4.604-7.505-7.506 0-6.824 4.093-8.257 7.527-8.257 4.966 0 7.484 2.778 7.484 8.257 0 2.789-1.582 7.506-7.506 7.506z"/><path fill="#223948" d="M48.789 11.683c3.869 0 6.984 1.724 6.984 7.757 0 2.939-1.725 7.006-7.006 7.006-5.282 0-7.005-4.509-7.005-7.006 0-5.901 3.158-7.757 7.027-7.757m0-1c-5.176 0-8.027 3.109-8.027 8.757 0 3.095 2.173 8.006 8.005 8.006 5.5 0 8.006-4.15 8.006-8.006 0-5.729-2.761-8.757-7.984-8.757z"/></g></g></svg>