<svg xmlns="http://www.w3.org/2000/svg" width="100" height="100"><path fill="#55A4B0" d="M6.869 92.904A5.374 5.374 0 011.5 87.536V6.869A5.375 5.375 0 016.869 1.5h80.667a5.374 5.374 0 015.368 5.369v80.667a5.373 5.373 0 01-5.368 5.368H6.869z"/><path fill="#C0E9FF" d="M87.536 3a3.873 3.873 0 013.868 3.869v80.667a3.872 3.872 0 01-3.868 3.868H6.869A3.872 3.872 0 013 87.536V6.869A3.874 3.874 0 016.869 3h80.667m0-3H6.869A6.869 6.869 0 000 6.869v80.667a6.868 6.868 0 006.869 6.868h80.667a6.867 6.867 0 006.868-6.868V6.869A6.868 6.868 0 0087.536 0z"/><path fill="#CCEFFE" d="M44.521 81.043a1.333 1.333 0 01-1.331-1.331v-7.493h-7.439a1.332 1.332 0 01-1.331-1.33v-5.31c0-.733.597-1.331 1.331-1.331h7.439v-7.439c0-.732.597-1.33 1.331-1.33h5.309c.734 0 1.331.598 1.331 1.33v7.439h7.493c.734 0 1.33.598 1.33 1.331v5.31c0 .733-.596 1.33-1.33 1.33h-7.493v7.493c0 .733-.597 1.331-1.331 1.331h-5.309z"/><path fill="#223948" d="M49.83 56.229c.321 0 .581.261.581.58v8.189h8.243c.32 0 .58.261.58.581v5.31c0 .32-.26.58-.58.58h-8.243v8.243c0 .32-.26.581-.581.581h-5.309a.581.581 0 01-.581-.581v-8.243h-8.189a.58.58 0 01-.581-.58v-5.31c0-.32.26-.581.581-.581h8.189v-8.189c0-.319.26-.58.581-.58h5.309m0-1.5h-5.309a2.084 2.084 0 00-2.081 2.08v6.689h-6.689a2.084 2.084 0 00-2.081 2.081v5.31c0 1.146.934 2.08 2.081 2.08h6.689v6.743c0 1.147.934 2.081 2.081 2.081h5.309a2.085 2.085 0 002.081-2.081v-6.743h6.743c1.146 0 2.08-.934 2.08-2.08v-5.31a2.084 2.084 0 00-2.08-2.081h-6.743v-6.689c0-1.147-.932-2.08-2.081-2.08z"/><g><path fill="#CCEFFE" d="M58.043 42.105a.93.93 0 01-.602-.224l-2.883-2.448a1.126 1.126 0 01-.002-1.716l2.883-2.447a.928.928 0 01.602-.224c.521 0 .943.43.943.959v.69c2.375-.723 4.043-2.997 4.043-5.629 0-3.128-2.346-5.701-5.342-5.859a.842.842 0 01-.789-.853v-1.911c0-.472.375-.854.836-.854 4.875.204 8.814 4.456 8.814 9.478 0 4.604-3.221 8.539-7.561 9.336v.743c0 .259-.1.502-.279.683a.942.942 0 01-.663.276z"/><path fill="#223948" d="M57.732 22.089h.013c4.587.193 8.302 4.17 8.302 8.978 0 4.545-3.322 8.346-7.561 8.91v1.169c0 .273-.217.46-.444.46a.42.42 0 01-.276-.104l-2.885-2.448a.631.631 0 010-.955l2.883-2.447a.422.422 0 01.277-.104.45.45 0 01.443.46v1.325c2.867-.534 5.043-3.135 5.043-6.265 0-3.406-2.576-6.188-5.814-6.358-.178-.009-.314-.168-.314-.354v-1.911a.343.343 0 01.333-.356m0-1c-.736 0-1.336.607-1.336 1.354v1.911c0 .721.555 1.314 1.263 1.353 2.729.144 4.868 2.498 4.868 5.359 0 2.163-1.227 4.062-3.043 4.904a1.454 1.454 0 00-1.444-1.425c-.336 0-.665.121-.925.342l-2.883 2.448c-.362.308-.57.76-.57 1.24 0 .479.208.932.57 1.239l2.886 2.448a1.429 1.429 0 001.932-.071c.282-.276.437-.648.437-1.048v-.333c4.367-1.006 7.562-5.044 7.562-9.743 0-5.287-4.153-9.762-9.26-9.977l-.021-.001h-.036z"/><path fill="#CCEFFE" d="M38.056 41.302c-4.84-.202-8.779-4.453-8.779-9.476 0-4.604 3.22-8.539 7.561-9.337v-.742a.96.96 0 01.279-.683.925.925 0 011.266-.053l2.885 2.447a1.127 1.127 0 01-.001 1.717l-2.881 2.447a.928.928 0 01-.602.224.953.953 0 01-.944-.96v-.689c-2.375.722-4.042 2.997-4.042 5.629 0 3.128 2.346 5.701 5.341 5.858a.844.844 0 01.789.853v1.911a.862.862 0 01-.233.592.826.826 0 01-.601.263l-.038-.001z"/><path fill="#223948" d="M37.781 21.287c.095 0 .193.032.278.104l2.884 2.447a.633.633 0 010 .956l-2.882 2.447a.424.424 0 01-.277.104.45.45 0 01-.444-.46l-.001-1.325c-2.866.533-5.042 3.134-5.042 6.265 0 3.406 2.576 6.188 5.814 6.357.178.01.315.169.315.354v1.911c0 .194-.15.354-.335.354h-.014c-4.586-.192-8.302-4.169-8.302-8.977 0-4.546 3.322-8.346 7.561-8.91v-1.169a.452.452 0 01.445-.458m0-1a1.452 1.452 0 00-1.444 1.461v.334c-4.367 1.006-7.561 5.045-7.561 9.744 0 5.286 4.154 9.762 9.26 9.976l.021.001h.035c.736 0 1.335-.607 1.335-1.354v-1.911c0-.721-.555-1.314-1.263-1.352-2.729-.144-4.867-2.498-4.867-5.359 0-2.163 1.225-4.062 3.042-4.904.019.789.66 1.425 1.444 1.425.336 0 .665-.122.925-.343l2.882-2.447c.363-.309.571-.76.571-1.24s-.208-.932-.571-1.24l-2.884-2.447a1.42 1.42 0 00-.925-.344z"/><g><path fill="#5B2A2A" d="M45.448 19.695c-.034-.023-.253.088-.294.086a4.5 4.5 0 00-.667.017c-.016.001-.035.004-.045.017-.01.012-.01.027-.01.042 0 .334-.035.611-.013.935.011.162.039.344.17.441a.527.527 0 00.259.084c.111.014.224.018.336.012a.452.452 0 00.209-.048c.129-.075.163-.244.165-.393.003-.334.047-.8-.076-1.11-.016-.041.001-.057-.034-.083zM53.492 19.091a.18.18 0 00-.135 0c-.137.063-.299.255-.438.318-.059.028-.328.158-.357.223-.023.049-.024.374-.024.431v1.19c0 .115-.084.276-.026.37.041.067.19.071.258.104.073.02.377.037.453.029a.256.256 0 00.203-.135.522.522 0 00.039-.201l.059-1.023a4.58 4.58 0 00.006-.683c-.009-.057.007-.601-.038-.623z"/><path fill="#5B2A2A" d="M58.209 12.937c-.045-.324-.232-.614-.441-.87-.205-.252-.371-.501-.631-.7-.096-.073-.258-.218-.379-.224-.095-.003-.16.063-.254.073-.248.023-.361-.15-.633-.186-.064-.009-.598.134-.598.134s-.203.337-.273.577c-.002-.071-.073-.326-.062-.397.056-.109.221-.351.236-.362.088-.062.424-.097.533-.09.247.015.518.087.764.062.118-.012.325.003.41-.076.09-.083.115-.15.165-.268.095-.224-.092-.483-.26-.66-.168-.176-.399-.275-.63-.354-.867-.296-1.922-.152-2.645.411-.406.316-.74.731-1.169 1.018-.791.526-1.762.146-2.701.296-.249.039-.495.109-.746.105-.358-.004-.595-.112-.953-.143-.994-.087-.906-.18-1.338-.045-.221.068-.56.086-.782.153-.696.21-1.48.104-2.127.436-.456.233-.818.544-1.223.856-.31.24-.631.457-.909.733-.411.409-.562 1.285-.358 1.828.047.127.248.192.366.125a.546.546 0 00.169-.232c.094-.292.165-.636.428-.794l.088.038c-.403.831-.388 1.892-.176 2.791s.611 1.718.589 2.642c-.01.417-.195 1.172.104 1.463.25.244.963.297 1.208-.041.101-.14.029-.478.036-.648.015-.407.056-.652.071-1.06.829.138 1.594-.093 2.192-.646a1.882 1.882 0 00.502-.127c1.185.299 3.665.366 3.673.371l.03-.002c.067.126.159.237.27.323.062.136.102.266.116.419l.002.028.004.087.002.048c.001.05 0 .103-.002.159-.012.303-.062.509-.037.79v.005c-.006.158-.006.319.042.47.006.019.016.036.021.054.018.08.043.156.082.217.096.149.371.218.525.215.176-.004.432-.019.518-.144.125-.178.113-.623.099-.874-.007-.122-.019-.273-.024-.435v-.025c.008-.254.037-.506.082-.756a.85.85 0 01.135-.364c.098-.13.255-.196.396-.275l.062-.038c.117-.04.269-.05.396-.156.963-.807 1.766-1.605 2.129-2.903.108-.389.15-.726.377-1.171.146-.122.127-.069.196-.248.007-.017.103-.109.104-.128.021-.033.084-.143.084-.143s-.193-.05-.235-.051c-.188-.114-.302.032-.474-.11a7.171 7.171 0 01-.312-.317c-.141-.154-.048-.431-.217-.552a.414.414 0 01-.135-.138v-.005c-.012-.042-.022-.086-.032-.129v-.004c-.019-.143.136-.286.252-.43l.004.062c.058.529.476.851.799 1.07.112.076.31.138.433.192.39.171.967.078 1.388.009a.947.947 0 00.296-.093c.294-.156.423-.521.378-.846zm-4.075-.687c-.099.215-.348.609-.584.596-.219-.013-.374-.242-.384-.462-.01-.219.16-.595.254-.792.061-.129-.074.721.038.758l.246.099c.206-.139.317-.491.42-.418.03.021.037.066.04.104.004.04-.014.079-.03.115z"/></g><g><path fill="#5B2A2A" d="M42.551 43.659h4.02a.53.53 0 00.53-.53v-1.503a.53.53 0 00-.53-.529h-4.02a.53.53 0 00-.529.529v1.503c0 .292.238.53.529.53zM48.125 43.659h4.02a.53.53 0 00.53-.53v-1.503a.53.53 0 00-.53-.529h-4.02a.53.53 0 00-.529.529v1.503a.53.53 0 00.529.53zM46.571 47.303h-4.02a.53.53 0 00-.529.53v1.503a.53.53 0 00.529.529h4.02a.53.53 0 00.53-.529v-1.503a.53.53 0 00-.53-.53zM52.145 47.303h-4.02a.53.53 0 00-.529.53v1.503a.53.53 0 00.529.529h4.02a.53.53 0 00.53-.529v-1.503a.532.532 0 00-.53-.53zM43.984 46.272V44.77a.53.53 0 00-.529-.53h-4.02a.53.53 0 00-.53.53v1.503a.53.53 0 00.53.529h4.02a.531.531 0 00.529-.53zM45.061 44.239a.53.53 0 00-.53.53v1.503a.53.53 0 00.53.529h4.02a.53.53 0 00.53-.529V44.77a.53.53 0 00-.53-.53l-4.02-.001zM54.682 44.239h-4.021a.53.53 0 00-.529.53v1.503a.53.53 0 00.529.529h4.021a.53.53 0 00.529-.529V44.77a.532.532 0 00-.529-.531z"/></g></g></svg>