<svg xmlns="http://www.w3.org/2000/svg" width="100" height="100"><path fill="#55A4B0" d="M7.518 92.904a5.374 5.374 0 01-5.369-5.368V6.869A5.375 5.375 0 017.518 1.5h80.667a5.376 5.376 0 015.369 5.369v80.667a5.374 5.374 0 01-5.369 5.368H7.518z"/><path fill="#C0E9FF" d="M88.186 3a3.874 3.874 0 013.869 3.869v80.667a3.872 3.872 0 01-3.869 3.868H7.518a3.873 3.873 0 01-3.87-3.868V6.869A3.874 3.874 0 017.518 3h80.668m0-3H7.518a6.87 6.87 0 00-6.87 6.869v80.667a6.869 6.869 0 006.87 6.868h80.667a6.868 6.868 0 006.869-6.868V6.869A6.868 6.868 0 0088.186 0z"/><path fill="#CCEFFE" d="M36.4 75.454a1.332 1.332 0 01-1.331-1.331v-5.309c0-.734.597-1.332 1.331-1.332h22.902c.734 0 1.331.598 1.331 1.332v5.309c0 .734-.597 1.331-1.331 1.331H36.4z"/><path fill="#223948" d="M59.302 68.232c.321 0 .581.262.581.582v5.309c0 .32-.26.581-.581.581H36.4a.581.581 0 01-.581-.581v-5.309c0-.32.26-.582.581-.582h22.902m0-1.5H36.4a2.085 2.085 0 00-2.081 2.082v5.309c0 1.146.934 2.081 2.081 2.081h22.902a2.085 2.085 0 002.081-2.081v-5.309a2.084 2.084 0 00-2.081-2.082z"/><g><radialGradient id="a" cx="122.506" cy="-174.138" r="13.536" gradientTransform="matrix(.9434 0 0 -.9434 -84.91 -140.58)" gradientUnits="userSpaceOnUse"><stop offset=".297" stop-color="#f6ffff"/><stop offset="1" stop-color="#cceffe"/></radialGradient><path fill="url(#a)" d="M20.846 36.472a2.96 2.96 0 01-2.956-2.956V13.887a2.96 2.96 0 012.956-2.956h19.629a2.96 2.96 0 012.956 2.956v19.629a2.96 2.96 0 01-2.956 2.956H20.846z"/><path fill="#9CBBD0" d="M40.476 11.431a2.46 2.46 0 012.456 2.456v19.629a2.46 2.46 0 01-2.456 2.456h-19.63a2.46 2.46 0 01-2.456-2.456V13.887a2.46 2.46 0 012.456-2.456h19.63m0-1h-19.63a3.467 3.467 0 00-3.456 3.456v19.629c0 1.9 1.555 3.456 3.456 3.456h19.629a3.467 3.467 0 003.456-3.456V13.887a3.465 3.465 0 00-3.455-3.456z"/><path fill="#223948" d="M40.476 10.431a3.466 3.466 0 013.456 3.456v19.629c0 1.9-1.555 3.456-3.456 3.456h-19.63a3.467 3.467 0 01-3.456-3.456V13.887a3.467 3.467 0 013.456-3.456h19.63m0-1.5h-19.63a4.963 4.963 0 00-4.956 4.956v19.629a4.963 4.963 0 004.956 4.956h19.629a4.962 4.962 0 004.956-4.956V13.887a4.961 4.961 0 00-4.955-4.956z"/><path fill="#7290A7" d="M38.573 18.643a3.122 3.122 0 01-3.119-3.119 3.122 3.122 0 013.119-3.119 3.122 3.122 0 013.119 3.119 3.124 3.124 0 01-3.119 3.119z"/><path fill="#223948" d="M38.572 12.78a2.744 2.744 0 110 5.487 2.744 2.744 0 010-5.487m0-.75a3.498 3.498 0 00-3.494 3.493 3.497 3.497 0 003.494 3.494 3.497 3.497 0 003.494-3.494 3.498 3.498 0 00-3.494-3.493z"/><path fill="#4F6A7F" d="M41.073 14.393c.062.095-1.403-1.961-3.567-.608-2 1.251-1.081 3.424-1.036 3.503.011.018-.064-.057-.216-.297-1.239-1.96.312-4.889 3.604-4.133 1.03.99 1.178 1.478 1.215 1.535z"/><path fill="#7290A7" d="M22.218 35.104c-.767 0-1.541-.28-2.237-.81l-.041-.031-.031-.04c-.865-1.137-1.048-2.49-.488-3.621a3.103 3.103 0 012.796-1.735c.767 0 1.541.28 2.237.81l.041.031.031.04c.865 1.137 1.048 2.49.488 3.621a3.103 3.103 0 01-2.796 1.735z"/><path fill="#223948" d="M22.218 29.242c.643 0 1.336.221 2.01.734 1.724 2.263.148 4.754-2.01 4.754-.643 0-1.336-.221-2.01-.734-1.724-2.263-.148-4.754 2.01-4.754m0-.75a3.475 3.475 0 00-3.133 1.945c-.625 1.261-.428 2.761.526 4.013l.062.081.081.062c.762.58 1.614.888 2.464.888a3.475 3.475 0 003.132-1.945c.625-1.261.428-2.762-.526-4.014l-.062-.08-.081-.062c-.761-.581-1.613-.888-2.463-.888z"/><path fill="#4F6A7F" d="M24.718 30.854c.062.096-1.403-1.961-3.567-.607-2 1.25-1.081 3.423-1.036 3.502.01.019-.064-.057-.216-.297-1.239-1.96.312-4.889 3.604-4.133 1.03.991 1.178 1.479 1.215 1.535z"/><path fill="#7290A7" d="M30.661 26.819c-.768 0-1.541-.28-2.237-.81l-.041-.031-.031-.04c-.866-1.137-1.048-2.49-.488-3.62a3.103 3.103 0 012.796-1.736c.768 0 1.541.28 2.237.811l.041.03.031.04c.865 1.137 1.048 2.49.488 3.621a3.103 3.103 0 01-2.796 1.735z"/><path fill="#223948" d="M30.661 20.957c.643 0 1.336.221 2.01.734 1.724 2.263.147 4.754-2.01 4.754-.642 0-1.336-.221-2.01-.734-1.724-2.263-.148-4.754 2.01-4.754m0-.75a3.475 3.475 0 00-3.132 1.945c-.625 1.261-.428 2.761.525 4.014l.062.08.081.062c.762.58 1.614.888 2.464.888a3.475 3.475 0 003.132-1.945c.625-1.261.428-2.761-.525-4.014l-.062-.08-.081-.062c-.762-.581-1.614-.888-2.464-.888z"/><path fill="#4F6A7F" d="M33.161 22.569c.062.096-1.403-1.961-3.567-.607-2 1.25-1.081 3.423-1.036 3.502.011.019-.064-.057-.216-.297-1.239-1.96.312-4.888 3.604-4.133 1.03.99 1.178 1.479 1.215 1.535z"/><radialGradient id="b" cx="158.949" cy="-174.138" r="13.537" gradientTransform="matrix(.9434 0 0 -.9434 -84.91 -140.58)" gradientUnits="userSpaceOnUse"><stop offset=".297" stop-color="#f6ffff"/><stop offset="1" stop-color="#cceffe"/></radialGradient><path fill="url(#b)" d="M55.227 36.472a2.96 2.96 0 01-2.955-2.956V13.887a2.96 2.96 0 012.955-2.956h19.629a2.96 2.96 0 012.957 2.956v19.629a2.96 2.96 0 01-2.957 2.956H55.227z"/><path fill="#9CBBD0" d="M74.855 11.431a2.46 2.46 0 012.457 2.456v19.629a2.46 2.46 0 01-2.457 2.456H55.227a2.46 2.46 0 01-2.457-2.456V13.887a2.46 2.46 0 012.457-2.456h19.628m0-1H55.227a3.466 3.466 0 00-3.455 3.456v19.629c0 1.9 1.555 3.456 3.455 3.456h19.631a3.467 3.467 0 003.455-3.456V13.887a3.467 3.467 0 00-3.458-3.456z"/><path fill="#223948" d="M74.855 10.431c1.9 0 3.457 1.555 3.457 3.456v19.629c0 1.9-1.556 3.456-3.457 3.456H55.227a3.468 3.468 0 01-3.457-3.456V13.887a3.467 3.467 0 013.457-3.456h19.628m0-1.5H55.227a4.963 4.963 0 00-4.956 4.956v19.629a4.962 4.962 0 004.956 4.956h19.631a4.962 4.962 0 004.955-4.956V13.887a4.963 4.963 0 00-4.958-4.956z"/><g><path fill="#7290A7" d="M73.074 18.643a3.121 3.121 0 01-3.119-3.119 3.122 3.122 0 013.119-3.119 3.122 3.122 0 013.119 3.119 3.122 3.122 0 01-3.119 3.119z"/><path fill="#223948" d="M73.074 12.78a2.744 2.744 0 110 5.487 2.744 2.744 0 010-5.487m0-.75a3.498 3.498 0 00-3.494 3.493 3.497 3.497 0 003.494 3.494 3.497 3.497 0 003.494-3.494 3.499 3.499 0 00-3.494-3.493z"/></g><g><path fill="#4F6A7F" d="M75.574 14.393c.062.095-1.403-1.961-3.567-.608-2 1.251-1.081 3.424-1.036 3.503.012.018-.063-.057-.216-.297-1.239-1.96.312-4.889 3.604-4.133 1.03.99 1.178 1.478 1.215 1.535z"/></g><g><path fill="#7290A7" d="M56.719 35.104c-.767 0-1.541-.28-2.236-.81l-.041-.031-.031-.04c-.865-1.137-1.049-2.49-.488-3.621a3.103 3.103 0 012.796-1.735c.767 0 1.541.28 2.237.81l.041.031.031.04c.865 1.137 1.048 2.49.488 3.621a3.105 3.105 0 01-2.797 1.735z"/><path fill="#223948" d="M56.719 29.242c.643 0 1.336.221 2.01.734 1.725 2.263.148 4.754-2.01 4.754-.643 0-1.336-.221-2.01-.734-1.723-2.263-.147-4.754 2.01-4.754m.002-.75a3.477 3.477 0 00-3.134 1.945c-.625 1.261-.428 2.761.526 4.013l.062.081.081.062c.762.58 1.614.888 2.465.888a3.474 3.474 0 003.131-1.945c.625-1.261.428-2.762-.525-4.014l-.062-.08-.08-.062c-.764-.581-1.617-.888-2.464-.888z"/></g><g><path fill="#4F6A7F" d="M59.219 30.854c.062.096-1.402-1.961-3.566-.607-2 1.25-1.082 3.423-1.036 3.502.01.019-.064-.057-.216-.297-1.239-1.96.312-4.889 3.604-4.133 1.029.991 1.179 1.479 1.214 1.535z"/></g><g><path fill="#7290A7" d="M56.719 18.643a3.104 3.104 0 01-2.796-1.736c-.56-1.131-.377-2.483.488-3.62l.03-.04.041-.03c.697-.53 1.471-.812 2.238-.812 1.193 0 2.266.666 2.795 1.736.561 1.131.377 2.483-.488 3.62l-.03.04-.041.03c-.696.531-1.47.812-2.237.812z"/><path fill="#223948" d="M56.719 12.78c2.158 0 3.733 2.49 2.01 4.754-.674.513-1.367.733-2.01.733-2.156 0-3.732-2.49-2.01-4.754.674-.512 1.368-.733 2.01-.733m0-.75c-.85 0-1.701.307-2.464.887l-.081.062-.062.081c-.953 1.252-1.149 2.753-.524 4.014a3.476 3.476 0 003.132 1.944c.85 0 1.702-.307 2.465-.887l.08-.062.062-.081c.953-1.252 1.15-2.753.525-4.014a3.477 3.477 0 00-3.133-1.944z"/></g><g><path fill="#4F6A7F" d="M59.219 14.393c.062.095-1.402-1.961-3.566-.608-2 1.251-1.082 3.424-1.036 3.503.01.018-.064-.057-.216-.297-1.239-1.96.312-4.889 3.604-4.133 1.029.99 1.179 1.478 1.214 1.535z"/></g><g><path fill="#7290A7" d="M73.074 35.104a3.105 3.105 0 01-2.797-1.735c-.56-1.131-.377-2.484.488-3.621l.03-.04.041-.031c.696-.529 1.47-.81 2.237-.81 1.193 0 2.266.665 2.796 1.735.56 1.131.377 2.484-.488 3.621l-.03.04-.041.031c-.695.53-1.468.81-2.236.81z"/><path fill="#223948" d="M73.074 29.242c2.158 0 3.734 2.491 2.01 4.754-.674.514-1.368.734-2.01.734-2.157 0-3.733-2.491-2.01-4.754.674-.513 1.368-.734 2.01-.734m0-.75c-.85 0-1.702.307-2.465.888l-.08.062-.062.08c-.953 1.253-1.15 2.753-.525 4.014a3.478 3.478 0 003.133 1.945c.851 0 1.703-.308 2.464-.888l.081-.062.062-.081c.953-1.252 1.149-2.752.524-4.014a3.476 3.476 0 00-3.132-1.944z"/></g><g><path fill="#4F6A7F" d="M75.574 30.854c.062.096-1.403-1.961-3.567-.607-2 1.25-1.081 3.423-1.036 3.502.012.019-.063-.057-.216-.297-1.239-1.96.312-4.889 3.604-4.133 1.03.991 1.178 1.479 1.215 1.535z"/></g></g></svg>