<svg xmlns="http://www.w3.org/2000/svg" width="100" height="100"><style>.st10{fill:#223948}</style><g id="Layer_2"><path d="M6.962 92.789a5.375 5.375 0 01-5.37-5.369V6.752a5.375 5.375 0 015.37-5.369h80.666a5.375 5.375 0 015.37 5.369V87.42a5.375 5.375 0 01-5.37 5.369H6.962z" fill="#55a4b0"/><path d="M87.628 2.883a3.873 3.873 0 013.869 3.87V87.42a3.873 3.873 0 01-3.869 3.869H6.962a3.874 3.874 0 01-3.87-3.869V6.753a3.874 3.874 0 013.87-3.87h80.666m0-3H6.962a6.87 6.87 0 00-6.87 6.87V87.42a6.87 6.87 0 006.87 6.869h80.666a6.87 6.87 0 006.869-6.869V6.753a6.87 6.87 0 00-6.869-6.87z" fill="#c0e9ff"/><g id="Development_7_"><g opacity=".15"><path d="M36.275 49.688a.56.56 0 01-.559-.56v-34.93a.56.56 0 01.559-.559h24.039a.56.56 0 01.559.559v34.93a.56.56 0 01-.559.56H36.275z"/><path d="M59.873 14.64v34.048H36.717V14.64h23.156m.441-2H36.275c-.861 0-1.559.698-1.559 1.559v34.93c0 .861.697 1.56 1.559 1.56h24.039a1.56 1.56 0 001.559-1.56v-34.93c0-.861-.698-1.559-1.559-1.559z"/><path d="M60.314 13.64a.56.56 0 01.559.559v34.93a.56.56 0 01-.559.56H36.275a.56.56 0 01-.559-.56v-34.93a.56.56 0 01.559-.559h24.039m0-1H36.275c-.861 0-1.559.698-1.559 1.559v34.93c0 .861.697 1.56 1.559 1.56h24.039a1.56 1.56 0 001.559-1.56v-34.93c0-.861-.698-1.559-1.559-1.559z"/></g><radialGradient id="SVGID_1_" cx="34.456" cy="30.664" r="15.387" gradientTransform="matrix(0 -1 1.064 0 14.668 65.12)" gradientUnits="userSpaceOnUse"><stop offset="0" stop-color="#32b4ba"/><stop offset=".163" stop-color="#30abba"/><stop offset=".429" stop-color="#2b93ba"/><stop offset=".762" stop-color="#236bba"/><stop offset="1" stop-color="#1d4bba"/></radialGradient><path d="M35.275 48.688a.56.56 0 01-.559-.56v-34.93a.56.56 0 01.559-.559h24.039a.56.56 0 01.559.559v34.93a.56.56 0 01-.559.56H35.275z" fill="url(#SVGID_1_)"/><path d="M58.873 13.64v34.048H35.717V13.64h23.156m.441-2H35.275c-.861 0-1.559.698-1.559 1.559v34.93c0 .861.697 1.56 1.559 1.56h24.039a1.56 1.56 0 001.559-1.56v-34.93c0-.861-.698-1.559-1.559-1.559z" fill="#66c2e2"/><path d="M59.314 12.64a.56.56 0 01.559.559v34.93a.56.56 0 01-.559.56H35.275a.56.56 0 01-.559-.56v-34.93a.56.56 0 01.559-.559h24.039m0-1H35.275c-.861 0-1.559.698-1.559 1.559v34.93c0 .861.697 1.56 1.559 1.56h24.039a1.56 1.56 0 001.559-1.56v-34.93c0-.861-.698-1.559-1.559-1.559z" fill="#414042"/></g><g id="Question_2_"><linearGradient id="SVGID_2_" gradientUnits="userSpaceOnUse" x1="47.212" y1="37.606" x2="47.212" y2="33.488"><stop offset="0" stop-color="#70aefe"/><stop offset=".16" stop-color="#83bcfe"/><stop offset=".527" stop-color="#abd7fe"/><stop offset=".82" stop-color="#c3e9fe"/><stop offset="1" stop-color="#cceffe"/></linearGradient><path d="M47.182 37.604c-1.363-.168-1.973-1.156-1.973-2.059 0-.901.609-1.889 1.973-2.057 1.424.168 2.034 1.155 2.034 2.057 0 .902-.61 1.891-1.973 2.059l-.031.003-.03-.003z" fill="url(#SVGID_2_)"/><path class="st10" d="M47.212 33.736c2.338.288 2.338 3.329 0 3.618-2.338-.289-2.338-3.33 0-3.618m0-.504l-.062.008c-1.506.186-2.191 1.325-2.191 2.305 0 .98.686 2.12 2.191 2.306l.062.008.062-.008c1.506-.186 2.191-1.325 2.191-2.306 0-.979-.686-2.119-2.191-2.305l-.062-.008z"/><g><linearGradient id="SVGID_3_" gradientUnits="userSpaceOnUse" x1="47.264" y1="31.67" x2="47.264" y2="21.261"><stop offset="0" stop-color="#70aefe"/><stop offset=".16" stop-color="#83bcfe"/><stop offset=".527" stop-color="#abd7fe"/><stop offset=".82" stop-color="#c3e9fe"/><stop offset="1" stop-color="#cceffe"/></linearGradient><path d="M45.535 31.67v-.25c0-1.32.945-2.547 1.831-3.256 1.029-.824 1.644-1.709 1.644-2.371 0-1.096-1.022-1.26-1.632-1.26-1.059 0-1.788.551-2.229 1.682l-.105.271-2.881-1.659.081-.202c.842-2.106 2.8-3.364 5.238-3.364 1.276 0 2.421.387 3.401 1.149.983.766 1.482 1.833 1.482 3.176 0 1.852-1.195 2.986-2.155 3.896-.709.674-1.32 1.254-1.32 1.938v.25h-3.355z" fill="url(#SVGID_3_)"/><path class="st10" d="M47.481 21.512c1.24 0 2.316.372 3.247 1.096.932.725 1.387 1.718 1.387 2.979 0 3.082-3.476 4.013-3.476 5.834h-2.855c0-1.221.911-2.4 1.738-3.062.827-.661 1.737-1.654 1.737-2.564 0-.973-.703-1.511-1.883-1.511-1.158 0-1.985.621-2.461 1.842l-2.441-1.407c.828-2.07 2.773-3.207 5.007-3.207m0-.5c-2.506 0-4.603 1.349-5.471 3.521l-.161.402.375.217 2.441 1.406.504.291.212-.542c.399-1.025 1.052-1.523 1.995-1.523.918 0 1.383.34 1.383 1.011 0 .576-.594 1.409-1.55 2.175-.931.744-1.926 2.042-1.926 3.452v.5h3.855v-.5c0-.576.575-1.123 1.242-1.757.995-.944 2.233-2.12 2.233-4.077 0-1.424-.531-2.559-1.579-3.374-1.023-.798-2.22-1.202-3.553-1.202z"/></g></g><g id="V_3_"><path d="M45.495 84.251c-.414 0-.802-.16-1.095-.453L31.666 71.063c-.305-.305-.473-.71-.473-1.141s.167-.836.472-1.142L35.447 65c.304-.305.71-.474 1.141-.474s.837.169 1.142.474l7.748 7.748L58.25 59.176a1.617 1.617 0 012.298-.016l3.782 3.782c.305.305.473.71.473 1.141s-.167.836-.472 1.142l-17.729 18.56a1.545 1.545 0 01-1.107.466z" fill="#cceffe"/><path class="st10" d="M59.407 59.437c.221 0 .442.085.611.253l3.782 3.782a.865.865 0 010 1.222L46.06 83.268a.798.798 0 01-1.129 0L32.196 70.533a.865.865 0 010-1.222l3.781-3.781a.86.86 0 011.221 0l8.296 8.295 13.301-14.136a.868.868 0 01.612-.252m0-1.5c-.631 0-1.225.246-1.671.692L45.462 71.672 38.26 64.47a2.346 2.346 0 00-1.671-.692c-.632 0-1.225.245-1.672.692l-3.781 3.781a2.366 2.366 0 000 3.343L43.87 84.328a2.283 2.283 0 001.625.673c.614 0 1.191-.239 1.625-.673l17.764-18.6c.897-.896.897-2.396-.024-3.317l-3.782-3.782a2.349 2.349 0 00-1.671-.692z"/></g></g></svg>