<svg xmlns="http://www.w3.org/2000/svg" width="100" height="100"><path fill="#55A4B0" d="M6.837 92.904a5.374 5.374 0 01-5.369-5.368V6.869A5.374 5.374 0 016.837 1.5h80.667a5.374 5.374 0 015.369 5.369v80.667a5.374 5.374 0 01-5.369 5.368H6.837z"/><path fill="#C0E9FF" d="M87.504 3a3.873 3.873 0 013.869 3.869v80.667a3.871 3.871 0 01-3.869 3.868H6.837a3.872 3.872 0 01-3.869-3.868V6.869A3.873 3.873 0 016.837 3h80.667m0-3H6.837A6.869 6.869 0 00-.032 6.869v80.667a6.868 6.868 0 006.869 6.868h80.667a6.868 6.868 0 006.869-6.868V6.869A6.869 6.869 0 0087.504 0z"/><path fill="#CCEFFE" d="M35.719 75.454c-.733 0-1.33-.597-1.33-1.331v-5.309c0-.734.597-1.332 1.33-1.332h22.903c.733 0 1.33.598 1.33 1.332v5.309c0 .734-.597 1.331-1.33 1.331H35.719z"/><path fill="#223948" d="M58.622 68.232c.319 0 .58.262.58.582v5.309c0 .32-.261.581-.58.581H35.719a.581.581 0 01-.58-.581v-5.309c0-.32.26-.582.58-.582h22.903m0-1.5H35.719c-1.147 0-2.08.935-2.08 2.082v5.309c0 1.146.933 2.081 2.08 2.081h22.903c1.146 0 2.08-.935 2.08-2.081v-5.309a2.083 2.083 0 00-2.08-2.082z"/><g><path fill="#CCEFFE" d="M57.734 42.105a.926.926 0 01-.602-.224l-2.885-2.448a1.117 1.117 0 01-.395-.856c0-.334.144-.647.395-.86l2.882-2.447a.93.93 0 01.603-.224c.521 0 .943.43.943.959v.69c2.375-.723 4.042-2.997 4.042-5.629 0-3.128-2.346-5.701-5.341-5.859a.842.842 0 01-.789-.853v-1.911c0-.472.375-.854.835-.854 4.876.204 8.815 4.456 8.815 9.478 0 4.604-3.221 8.539-7.562 9.336v.743a.961.961 0 01-.278.683.94.94 0 01-.663.276z"/><path fill="#223948" d="M57.424 22.089h.014c4.588.193 8.303 4.17 8.303 8.978 0 4.545-3.322 8.346-7.561 8.91v1.169c0 .273-.217.46-.445.46a.424.424 0 01-.276-.104l-2.884-2.448a.632.632 0 01-.001-.955l2.882-2.447a.428.428 0 01.277-.104.45.45 0 01.444.46v1.325c2.866-.534 5.042-3.135 5.042-6.265 0-3.406-2.574-6.188-5.814-6.358-.178-.009-.314-.168-.314-.354v-1.911c-.002-.195.147-.356.333-.356m0-1c-.736 0-1.335.607-1.335 1.354v1.911c0 .721.556 1.314 1.263 1.353 2.729.144 4.867 2.498 4.867 5.359 0 2.163-1.226 4.062-3.043 4.904a1.453 1.453 0 00-1.443-1.425c-.336 0-.664.121-.924.342l-2.883 2.448c-.363.308-.57.76-.57 1.24 0 .479.207.932.57 1.239l2.885 2.448a1.429 1.429 0 001.933-.071c.282-.276.437-.648.437-1.048v-.333c4.367-1.006 7.562-5.044 7.562-9.743 0-5.287-4.154-9.762-9.261-9.977l-.021-.001h-.037z"/><path fill="#CCEFFE" d="M37.747 41.302c-4.84-.202-8.778-4.453-8.778-9.476 0-4.604 3.22-8.539 7.561-9.337v-.742a.946.946 0 01.943-.96.93.93 0 01.602.224l2.885 2.447a1.127 1.127 0 01-.001 1.717l-2.881 2.447a.93.93 0 01-.602.224.953.953 0 01-.944-.96v-.689c-2.375.722-4.042 2.997-4.042 5.629 0 3.128 2.346 5.701 5.341 5.858a.845.845 0 01.789.853v1.911a.862.862 0 01-.233.592.826.826 0 01-.601.263l-.039-.001z"/><path fill="#223948" d="M37.473 21.287c.096 0 .193.032.278.104l2.884 2.447a.633.633 0 010 .956l-2.882 2.447a.424.424 0 01-.277.104.45.45 0 01-.444-.46l-.001-1.325c-2.865.533-5.041 3.134-5.041 6.265 0 3.406 2.575 6.188 5.814 6.357.178.01.315.169.315.354v1.911c0 .194-.15.354-.335.354h-.014c-4.587-.192-8.302-4.169-8.302-8.977 0-4.546 3.321-8.346 7.561-8.91l-.001-1.169a.45.45 0 01.445-.458m0-1c-.378 0-.735.146-1.008.413a1.457 1.457 0 00-.437 1.048l.001.334c-4.367 1.006-7.561 5.045-7.561 9.744 0 5.286 4.153 9.762 9.26 9.976l.021.001h.035c.736 0 1.335-.607 1.335-1.354v-1.911c0-.721-.555-1.314-1.263-1.352-2.729-.144-4.867-2.498-4.867-5.359 0-2.163 1.225-4.062 3.042-4.904.02.789.66 1.425 1.444 1.425.337 0 .665-.122.925-.343l2.882-2.447a1.629 1.629 0 000-2.48l-2.885-2.447a1.416 1.416 0 00-.924-.344z"/><g><path fill="#5B2A2A" d="M45.14 19.695c-.034-.023-.253.088-.295.086a4.504 4.504 0 00-.667.017c-.017.001-.035.004-.045.017-.01.012-.011.027-.011.042 0 .334-.034.611-.013.935.012.162.039.344.171.441a.527.527 0 00.259.084c.111.014.224.018.336.012a.452.452 0 00.209-.048c.129-.075.163-.244.165-.393.003-.334.047-.8-.076-1.11-.016-.041.002-.057-.033-.083zM53.184 19.091a.178.178 0 00-.134 0c-.138.063-.301.255-.438.318-.059.028-.327.158-.358.223-.022.049-.022.374-.022.431l-.002 1.19c0 .115-.084.276-.025.37.041.067.191.071.258.104.074.02.377.037.452.029a.256.256 0 00.204-.135.54.54 0 00.039-.201l.059-1.023a4.58 4.58 0 00.006-.683c-.009-.057.006-.601-.039-.623z"/><path fill="#5B2A2A" d="M57.9 12.937c-.045-.324-.232-.614-.441-.87-.205-.252-.372-.501-.632-.7-.095-.073-.259-.218-.378-.224-.096-.003-.16.063-.256.073-.248.023-.36-.15-.633-.186-.063-.009-.598.134-.598.134s-.203.337-.273.577c-.002-.071-.071-.326-.062-.397.056-.109.22-.351.235-.362.089-.062.425-.097.533-.09.246.015.518.087.763.062.118-.012.325.003.411-.076.09-.083.115-.15.164-.268.096-.224-.092-.483-.26-.66-.168-.176-.398-.275-.629-.354-.865-.296-1.921-.152-2.644.411-.406.316-.74.731-1.169 1.018-.791.526-1.762.146-2.701.296-.248.039-.494.109-.746.105-.358-.004-.595-.112-.952-.143-.994-.087-.906-.18-1.339-.045-.221.068-.56.086-.781.153-.696.21-1.48.104-2.128.436-.455.233-.818.544-1.223.856-.31.24-.631.457-.909.733-.411.409-.562 1.285-.357 1.828.047.127.248.192.365.125a.548.548 0 00.17-.232c.094-.292.164-.636.428-.794l.088.038c-.403.831-.388 1.892-.177 2.791.212.899.612 1.718.59 2.642-.01.417-.195 1.172.104 1.463.25.244.963.297 1.208-.041.101-.14.029-.478.035-.648.016-.407.056-.652.071-1.06.829.138 1.594-.093 2.192-.646a1.898 1.898 0 00.503-.127c1.185.299 3.664.366 3.673.371l.03-.002a.96.96 0 00.271.323c.063.136.101.266.117.419l.002.028c.002.027.004.058.004.087l.002.048c.002.05 0 .103-.002.159-.012.303-.062.509-.036.79l-.001.005c-.006.158-.006.319.042.47.006.019.015.036.021.054.018.08.043.156.081.217.097.149.372.218.526.215.176-.004.432-.019.518-.144.125-.178.112-.623.1-.874-.008-.122-.019-.273-.024-.435l.001-.025c.008-.254.035-.506.082-.756a.825.825 0 01.135-.364c.098-.13.254-.196.396-.275l.062-.038c.117-.04.27-.05.397-.156.963-.807 1.765-1.605 2.128-2.903.107-.389.15-.726.378-1.171.146-.122.127-.069.194-.248.008-.017.103-.109.104-.128.021-.033.085-.143.085-.143s-.193-.05-.236-.051c-.188-.114-.303.032-.473-.11a5.82 5.82 0 01-.312-.317c-.141-.154-.049-.431-.217-.552a.424.424 0 01-.135-.138l-.002-.005c-.012-.042-.021-.086-.031-.129v-.004c-.021-.143.135-.286.252-.43 0 .021.002.043.004.062.058.529.476.851.799 1.07.111.076.309.138.433.192.39.171.966.078 1.388.009a.925.925 0 00.295-.093c.293-.156.422-.521.377-.846zm-4.074-.687c-.1.215-.35.609-.584.596-.221-.013-.374-.242-.385-.462-.01-.219.16-.595.254-.792.062-.129-.073.721.039.758l.246.099c.205-.139.317-.491.42-.418.031.021.037.066.039.104a.224.224 0 01-.029.115z"/></g><g><path fill="#5B2A2A" d="M42.243 43.659h4.02c.291 0 .53-.238.53-.53v-1.503a.531.531 0 00-.53-.529h-4.02a.53.53 0 00-.529.529v1.503c0 .292.238.53.529.53zM47.816 43.659h4.02a.53.53 0 00.53-.53v-1.503a.53.53 0 00-.53-.529h-4.02a.531.531 0 00-.53.529v1.503c0 .292.239.53.53.53zM46.263 47.303h-4.02a.53.53 0 00-.529.53v1.503a.53.53 0 00.529.529h4.02c.291 0 .53-.238.53-.529v-1.503a.532.532 0 00-.53-.53zM51.836 47.303h-4.02a.532.532 0 00-.53.53v1.503c0 .291.239.529.53.529h4.02a.53.53 0 00.53-.529v-1.503a.53.53 0 00-.53-.53zM43.676 46.272V44.77a.53.53 0 00-.529-.53h-4.02a.53.53 0 00-.53.53v1.503a.53.53 0 00.53.529h4.02a.531.531 0 00.529-.53zM44.753 44.239a.53.53 0 00-.53.53v1.503a.53.53 0 00.53.529h4.02a.53.53 0 00.53-.529V44.77a.53.53 0 00-.53-.53l-4.02-.001zM54.372 44.239h-4.02a.53.53 0 00-.529.53v1.503a.53.53 0 00.529.529h4.02a.53.53 0 00.53-.529V44.77a.532.532 0 00-.53-.531z"/></g></g></svg>