<svg version="1.1" id="Layer_1" xmlns="http://www.w3.org/2000/svg" x="0" y="0" width="100" height="100" xml:space="preserve"><style>.st8{fill:#223948}.st10{fill:#5b2a2a}.st30{fill:#cceffe}.st33{fill:#d35437}</style><path d="M6.869 92.905a5.375 5.375 0 01-5.37-5.369V6.869A5.376 5.376 0 016.869 1.5h80.667a5.375 5.375 0 015.37 5.369v80.667a5.375 5.375 0 01-5.37 5.369H6.869z" fill="#55a4b0"/><path d="M87.536 3a3.873 3.873 0 013.87 3.869v80.667a3.873 3.873 0 01-3.87 3.869H6.869A3.873 3.873 0 013 87.536V6.869A3.873 3.873 0 016.869 3h80.667m0-3H6.869A6.869 6.869 0 000 6.869v80.667a6.869 6.869 0 006.869 6.869h80.667a6.87 6.87 0 006.87-6.869V6.869A6.87 6.87 0 0087.536 0z" fill="#c0e9ff"/><path class="st30" d="M57.767 42.105a.925.925 0 01-.601-.224l-2.884-2.448a1.122 1.122 0 01-.395-.856c0-.334.144-.647.395-.86l2.882-2.447a.928.928 0 01.602-.224c.521 0 .944.43.944.959v.69c2.375-.723 4.042-2.997 4.042-5.629 0-3.128-2.346-5.701-5.341-5.859a.842.842 0 01-.789-.853v-1.911c0-.472.375-.854.835-.854 4.876.204 8.815 4.456 8.815 9.478 0 4.604-3.221 8.539-7.561 9.336v.743a.962.962 0 01-.279.683.952.952 0 01-.665.276z"/><path class="st8" d="M57.456 22.089h.014c4.586.193 8.302 4.17 8.302 8.978 0 4.546-3.322 8.346-7.561 8.909v1.17a.45.45 0 01-.444.46.424.424 0 01-.277-.104l-2.884-2.448a.631.631 0 010-.955l2.882-2.447a.424.424 0 01.277-.104.45.45 0 01.444.46v1.325c2.866-.534 5.042-3.135 5.042-6.265 0-3.406-2.576-6.188-5.814-6.358-.178-.009-.315-.168-.315-.354v-1.911c-.001-.195.149-.356.334-.356m0-1c-.736 0-1.335.607-1.335 1.354v1.911c0 .721.555 1.315 1.263 1.353 2.729.144 4.867 2.498 4.867 5.359 0 2.163-1.226 4.062-3.043 4.904a1.454 1.454 0 00-1.444-1.425c-.336 0-.665.121-.925.342l-2.882 2.448c-.363.308-.571.76-.571 1.24 0 .479.208.932.571 1.239l2.884 2.448a1.429 1.429 0 001.932-.071c.281-.276.437-.648.436-1.048v-.333c4.367-1.006 7.561-5.045 7.561-9.743 0-5.287-4.154-9.762-9.26-9.977l-.021-.001h-.033z"/><path class="st30" d="M37.78 41.302C32.94 41.1 29 36.849 29 31.826c0-4.604 3.22-8.539 7.561-9.337v-.742a.96.96 0 01.279-.683.93.93 0 011.267-.053l2.884 2.447c.251.213.395.526.395.86 0 .332-.145.646-.396.857l-2.881 2.447a.928.928 0 01-.602.224.953.953 0 01-.944-.96v-.689c-2.375.722-4.042 2.997-4.042 5.629 0 3.128 2.346 5.701 5.341 5.858a.844.844 0 01.789.853v1.911a.862.862 0 01-.233.592.826.826 0 01-.601.263l-.037-.001z"/><path class="st8" d="M37.505 21.287c.095 0 .192.032.277.104l2.884 2.447a.631.631 0 010 .955l-2.882 2.448a.424.424 0 01-.277.104.45.45 0 01-.444-.46V25.56c-2.866.533-5.042 3.134-5.042 6.265 0 3.406 2.576 6.188 5.814 6.357.178.01.315.169.315.354v1.911c0 .194-.15.355-.335.355l-.013-.001c-4.587-.192-8.302-4.169-8.302-8.977 0-4.546 3.322-8.346 7.561-8.91v-1.169a.45.45 0 01.444-.458m0-1a1.452 1.452 0 00-1.444 1.461v.334c-4.367 1.006-7.561 5.045-7.561 9.744 0 5.286 4.154 9.762 9.26 9.976l.021.001.035.001c.736 0 1.335-.608 1.335-1.355v-1.911c0-.721-.555-1.314-1.263-1.352-2.729-.144-4.867-2.498-4.867-5.359 0-2.163 1.225-4.062 3.043-4.904a1.454 1.454 0 001.444 1.425c.336 0 .665-.122.925-.343l2.882-2.447c.363-.309.571-.76.571-1.24s-.208-.932-.571-1.24l-2.884-2.447a1.425 1.425 0 00-.926-.344z"/><g><path class="st10" d="M45.171 19.695c-.034-.023-.253.088-.294.086a4.5 4.5 0 00-.667.017c-.016.001-.035.004-.045.017-.009.012-.01.027-.01.042-.001.334-.035.611-.013.935.011.162.039.344.17.441a.527.527 0 00.259.084c.112.014.224.018.336.012a.452.452 0 00.209-.048c.128-.075.163-.244.164-.393.003-.334.047-.8-.076-1.11-.015-.041.003-.057-.033-.083zM53.215 19.091a.178.178 0 00-.134 0c-.137.063-.3.255-.437.318-.059.028-.328.158-.359.223-.023.049-.024.374-.024.431l-.001 1.19c0 .115-.084.276-.027.37.042.067.191.071.258.104.074.02.377.037.453.029a.258.258 0 00.205-.135c.03-.061.034-.132.038-.201l.059-1.023a4.58 4.58 0 00.005-.683c-.005-.057.01-.601-.036-.623z"/><path class="st10" d="M57.933 12.937c-.045-.324-.232-.613-.441-.87-.206-.252-.372-.501-.632-.7-.095-.073-.257-.218-.378-.223-.095-.004-.159.062-.254.072-.248.023-.361-.15-.633-.186-.065-.009-.598.134-.598.134s-.203.337-.273.577c-.002-.071-.072-.326-.062-.397.055-.109.22-.351.236-.362.088-.062.424-.096.533-.09.247.015.517.087.763.062.119-.012.326.003.411-.076.09-.083.115-.15.165-.268.095-.224-.092-.483-.26-.66-.168-.176-.399-.275-.63-.354-.867-.296-1.921-.152-2.644.411-.406.316-.74.731-1.169 1.018-.791.526-1.762.146-2.701.296-.249.039-.495.109-.747.105-.358-.004-.595-.112-.953-.143-.994-.087-.906-.18-1.338-.045-.221.068-.56.086-.782.153-.696.211-1.48.104-2.127.436-.455.233-.818.544-1.223.856-.31.24-.631.457-.909.733-.411.409-.561 1.285-.358 1.828.047.127.248.192.366.125a.546.546 0 00.169-.232c.094-.292.165-.636.428-.794l.088.038c-.404.831-.388 1.892-.177 2.791s.612 1.718.589 2.642c-.01.417-.195 1.172.104 1.463.25.244.963.297 1.208-.041.101-.14.029-.478.036-.648.016-.407.056-.652.071-1.06.829.138 1.594-.093 2.192-.646.099-.015.197-.031.294-.057.071-.019.141-.043.208-.07 1.185.299 3.665.366 3.673.371l.031-.002a.97.97 0 00.27.324 1.238 1.238 0 01.118.446l.004.087.002.048c.001.05 0 .103-.002.159-.012.303-.061.509-.037.79v.005c-.006.158-.006.319.042.47.006.019.015.036.022.054a.66.66 0 00.081.217c.096.149.372.218.526.215.176-.004.431-.02.518-.144.124-.178.112-.623.098-.874-.007-.122-.018-.273-.024-.435v-.025c.008-.254.036-.506.082-.756a.848.848 0 01.134-.364c.098-.13.255-.197.397-.275l.062-.038c.118-.04.269-.05.397-.156.963-.807 1.765-1.605 2.128-2.903.109-.389.151-.726.378-1.171.146-.122.128-.069.196-.248.007-.017.102-.109.104-.128.021-.033.084-.143.084-.143s-.194-.05-.236-.051c-.189-.114-.302.032-.473-.109a7.786 7.786 0 01-.312-.318c-.14-.154-.049-.431-.217-.553a.4.4 0 01-.134-.137l-.001-.005c-.013-.042-.023-.086-.033-.129v-.004c-.019-.143.136-.286.252-.43l.004.062c.058.529.475.851.799 1.07.112.076.309.138.433.192.389.171.966.078 1.387.009a.947.947 0 00.296-.093c.295-.156.424-.521.379-.846zm-4.075-.687c-.099.215-.349.609-.584.596-.219-.013-.374-.242-.384-.462-.01-.219.16-.595.254-.792.062-.129-.074.721.038.758l.247.099c.205-.139.317-.491.42-.418.03.021.037.066.04.104a.236.236 0 01-.031.115z"/></g><g><path class="st10" d="M42.275 43.659h4.02a.53.53 0 00.53-.53v-1.503a.53.53 0 00-.53-.529h-4.02a.53.53 0 00-.53.529v1.503c.001.292.239.53.53.53zM47.849 43.659h4.02a.53.53 0 00.53-.53v-1.503a.53.53 0 00-.53-.529h-4.02a.53.53 0 00-.53.529v1.503c0 .292.238.53.53.53zM46.295 47.303h-4.02a.53.53 0 00-.53.53v1.503a.53.53 0 00.53.529h4.02a.53.53 0 00.53-.529v-1.503a.532.532 0 00-.53-.53zM51.868 47.303h-4.02a.53.53 0 00-.53.53v1.503a.53.53 0 00.53.529h4.02a.53.53 0 00.53-.529v-1.503a.53.53 0 00-.53-.53zM43.708 46.272v-1.504a.531.531 0 00-.53-.529h-4.02a.53.53 0 00-.53.529v1.504a.53.53 0 00.53.529h4.02a.53.53 0 00.53-.529zM44.785 44.239a.53.53 0 00-.529.529v1.504a.53.53 0 00.529.529h4.02a.53.53 0 00.53-.529v-1.504a.53.53 0 00-.53-.529h-4.02zM54.404 44.239h-4.02a.53.53 0 00-.53.529v1.504a.53.53 0 00.53.529h4.02a.53.53 0 00.53-.529v-1.504a.531.531 0 00-.53-.529z"/></g><g><path d="M36.113 79.898c-.273 0-.49-.098-.634-.162-1.854-.806-4.72-3.945-4.828-6.325-.013-.271-.042-.843.486-1.187 2.237-1.455 4.004-3.351 5.919-5.497.595-.667 1.48-1.182 2.268-1.597.903-.477 1.912-.543 2.867-.543l9.274.094a7.74 7.74 0 011.235.095c.944.16 1.557.906 1.523 1.856a2.203 2.203 0 01-.032.31c1.48-1.003 2.954-2.489 3.514-3.521l.218-.414c.392-.754.835-1.608 1.661-2.21.489-.355 1.024-.545 1.547-.546a2.67 2.67 0 011.949.801c.58.59.904 1.441.89 2.336-.026 1.605-.493 3.218-1.35 4.664-.895 1.51-1.899 2.837-2.906 3.838a17.974 17.974 0 01-4.721 3.371c-2.636 1.305-5.59 1.455-8.446 1.602l-1.082.058c-2.909.167-6.181.601-8.401 2.547-.162.143-.424.373-.81.423l-.141.007z" fill="#ff8e6d"/><path d="M61.139 61.001c1.353 0 2.101 1.197 2.082 2.375-.024 1.509-.476 2.995-1.245 4.293s-1.72 2.625-2.79 3.688a17.117 17.117 0 01-4.524 3.23c-2.821 1.396-6.096 1.401-9.239 1.583-3.143.181-6.486.657-8.853 2.732-.121.106-.25.222-.41.242a.37.37 0 01-.047.003c-.13 0-.254-.065-.376-.118-1.632-.709-4.245-3.63-4.337-5.653-.01-.209-.028-.41.147-.524 2.357-1.533 4.197-3.527 6.069-5.626.525-.589 1.36-1.064 2.058-1.433.765-.403 1.652-.456 2.525-.456.128 0 .256.002.383.003l8.875.091c.369.004.754.021 1.118.084 1.652.28.959 2.95-1.512 3.193.163.045.336.065.519.065 2.233 0 5.791-3.168 6.782-4.996.463-.854.843-1.779 1.661-2.375.323-.235.708-.401 1.108-.402a.015.015 0 00.006.001m0-1.5h-.007c-.685.002-1.372.24-1.989.69-.969.706-1.477 1.685-1.886 2.471-.069.135-.139.269-.211.401-.404.745-1.283 1.692-2.255 2.5-.318-.796-1.024-1.367-1.964-1.527a8.75 8.75 0 00-1.353-.104l-8.875-.091-.399-.003c-1.056 0-2.177.076-3.225.629-.846.446-1.803 1.005-2.478 1.762-1.88 2.106-3.612 3.965-5.768 5.366-.59.384-.869.997-.83 1.823.125 2.754 3.264 6.13 5.239 6.988.213.096.542.242.974.242h.095l.142-.015c.612-.078 1.011-.429 1.203-.597 2.055-1.802 5.175-2.209 7.957-2.369.357-.021.716-.039 1.075-.057 2.933-.149 5.966-.305 8.743-1.679a18.718 18.718 0 004.917-3.512c1.05-1.045 2.096-2.424 3.022-3.987.923-1.559 1.427-3.299 1.455-5.033.018-1.095-.386-2.143-1.106-2.874a3.447 3.447 0 00-2.476-1.024z" fill="#561706"/></g><g><path class="st33" d="M35.737 79.03c.136.06.276.134.423.115.16-.021.289-.136.41-.242 2.367-2.075 5.71-2.552 8.853-2.732 3.143-.182 6.417-.187 9.239-1.583a17.117 17.117 0 004.524-3.23c1.07-1.063 2.021-2.391 2.79-3.688s1.11-2.236 1.245-3.739c.078-.863-.017-1.78-.825-2.473-.434-.373-.291 1.963-.325 2.361-.118 1.372-.201 2-.664 2.855-1.072 1.978-1.129 1.837-2.501 3.401-.266.25-2.036 1.843-2.943 2.463-.305.208-1.333.808-2.125 1.128l-3.032.531c-.992-.01-3.519.421-4.736.443-.79.014-4.624.229-5.377.464-3.784 1.18-5.978 2.922-5.978 2.922s-.61.295 1.022 1.004z"/></g><g><path class="st33" d="M44.044 68.875c.772-.748 1.873-1.035 2.918-.999 2.154.073 4.544-.118 6.474-1.048.016.487-.298 1.01-.713 1.266s-1.014.473-1.49.579c-2.322.516-4.765.191-7.134.251l-.055-.049z"/></g></svg>