<svg version="1.1" id="Layer_1" xmlns="http://www.w3.org/2000/svg" x="0" y="0" width="100" height="100" xml:space="preserve"><style>.st8{fill:#223948}.st10{fill:#5b2a2a}.st30{fill:#cceffe}</style><path d="M6.87 92.905a5.375 5.375 0 01-5.37-5.369V6.869A5.375 5.375 0 016.87 1.5h80.667a5.375 5.375 0 015.369 5.369v80.667a5.375 5.375 0 01-5.369 5.369H6.87z" fill="#55a4b0"/><path d="M87.536 3a3.873 3.873 0 013.87 3.869v80.667a3.873 3.873 0 01-3.87 3.869H6.869A3.873 3.873 0 013 87.536V6.869A3.873 3.873 0 016.869 3h80.667m0-3H6.869A6.869 6.869 0 000 6.869v80.667a6.869 6.869 0 006.869 6.869h80.667a6.87 6.87 0 006.87-6.869V6.869A6.87 6.87 0 0087.536 0z" fill="#c0e9ff"/><path class="st30" d="M57.767 42.105a.925.925 0 01-.601-.224l-2.885-2.448a1.12 1.12 0 01-.394-.856c0-.334.143-.647.394-.86l2.882-2.447a.928.928 0 01.602-.224c.52 0 .944.43.944.958v.691c2.375-.723 4.042-2.997 4.042-5.629 0-3.128-2.346-5.701-5.34-5.859a.842.842 0 01-.789-.853v-1.911c0-.472.375-.854.835-.854 4.876.204 8.815 4.456 8.815 9.478 0 4.604-3.221 8.539-7.561 9.336v.743a.952.952 0 01-.944.959z"/><path class="st8" d="M57.456 22.089h.014c4.586.193 8.302 4.17 8.302 8.978 0 4.546-3.322 8.346-7.561 8.909v1.17a.45.45 0 01-.444.46.427.427 0 01-.278-.104l-2.884-2.448a.631.631 0 010-.955l2.882-2.447a.424.424 0 01.277-.104.45.45 0 01.444.46l.001 1.325c2.866-.534 5.042-3.135 5.042-6.265 0-3.406-2.576-6.188-5.814-6.358-.178-.009-.315-.168-.315-.354v-1.911c-.001-.195.149-.356.334-.356m0-1c-.736 0-1.335.607-1.335 1.354v1.911c0 .721.555 1.315 1.263 1.353 2.729.144 4.867 2.498 4.867 5.359 0 2.163-1.225 4.062-3.043 4.904a1.454 1.454 0 00-1.444-1.425c-.336 0-.665.121-.925.342l-2.882 2.448c-.363.308-.571.76-.571 1.24 0 .479.208.932.571 1.239l2.884 2.448a1.43 1.43 0 001.933-.071c.281-.276.437-.648.436-1.048v-.333c4.367-1.006 7.561-5.045 7.561-9.743 0-5.287-4.154-9.762-9.26-9.977l-.021-.001h-.034z"/><path class="st30" d="M37.78 41.302C32.94 41.1 29 36.849 29 31.826c0-4.604 3.22-8.539 7.561-9.337v-.742c0-.529.423-.96.944-.96.218 0 .432.079.601.224l2.885 2.447c.251.213.395.526.394.86 0 .332-.144.645-.395.857l-2.881 2.447a.928.928 0 01-.602.224.954.954 0 01-.944-.959v-.69c-2.375.722-4.042 2.997-4.042 5.629 0 3.128 2.346 5.701 5.34 5.858.443.024.79.398.79.853v1.911a.866.866 0 01-.233.593.83.83 0 01-.601.262l-.037-.001z"/><path class="st8" d="M37.505 21.287c.095 0 .192.032.277.104l2.884 2.447a.631.631 0 010 .955l-2.882 2.448a.427.427 0 01-.278.104.45.45 0 01-.444-.46V25.56c-2.866.533-5.042 3.134-5.042 6.265 0 3.406 2.576 6.188 5.814 6.357.178.01.315.169.315.354v1.911c0 .194-.15.355-.335.355l-.013-.001c-4.587-.192-8.302-4.169-8.302-8.977 0-4.546 3.322-8.346 7.561-8.91v-1.169a.452.452 0 01.445-.458m0-1a1.453 1.453 0 00-1.445 1.461v.334c-4.367 1.006-7.561 5.045-7.561 9.744 0 5.286 4.154 9.762 9.26 9.976l.021.001.034.001c.736 0 1.335-.608 1.335-1.355v-1.911c0-.721-.555-1.314-1.263-1.352-2.729-.144-4.867-2.498-4.867-5.359 0-2.163 1.226-4.062 3.043-4.904a1.454 1.454 0 001.444 1.425c.336 0 .665-.122.925-.343l2.882-2.447c.363-.309.571-.76.571-1.24s-.208-.932-.571-1.24l-2.884-2.447a1.416 1.416 0 00-.924-.344z"/><g><path class="st10" d="M45.172 19.695c-.034-.023-.253.088-.295.086a4.504 4.504 0 00-.667.017c-.017.001-.035.004-.045.017-.009.012-.01.027-.01.042-.001.334-.035.611-.013.935.011.162.039.344.17.441a.527.527 0 00.259.084c.112.014.224.018.336.012a.452.452 0 00.209-.048c.129-.075.163-.244.164-.393.003-.334.047-.8-.076-1.11-.015-.041.003-.057-.032-.083zM53.215 19.091a.178.178 0 00-.134 0c-.137.063-.3.255-.437.318-.059.028-.328.158-.359.223-.023.049-.024.374-.024.431l-.001 1.19c0 .115-.084.276-.027.37.042.067.191.071.258.104.074.02.377.037.453.029a.256.256 0 00.204-.135c.03-.061.034-.132.038-.201l.059-1.023a4.58 4.58 0 00.005-.683c-.004-.057.011-.601-.035-.623z"/><path class="st10" d="M57.933 12.937c-.045-.324-.232-.613-.441-.87-.206-.252-.372-.501-.632-.7-.095-.073-.257-.218-.378-.223-.095-.004-.159.062-.254.072-.248.023-.361-.15-.633-.186-.064-.009-.598.134-.598.134s-.203.337-.273.577c-.002-.071-.073-.326-.062-.397.055-.109.22-.351.235-.362.088-.062.424-.096.533-.09.247.015.517.087.763.062.119-.012.325.003.41-.076.09-.083.115-.15.165-.268.096-.224-.092-.483-.26-.66-.167-.176-.399-.275-.63-.354-.867-.296-1.921-.152-2.644.411-.406.316-.74.731-1.169 1.018-.791.526-1.762.146-2.701.296-.249.039-.495.109-.747.105-.358-.004-.595-.112-.952-.143-.995-.087-.906-.18-1.339-.045-.221.068-.56.086-.781.153-.696.211-1.48.104-2.128.436-.455.233-.818.544-1.223.856-.31.24-.631.457-.909.733-.411.409-.561 1.285-.358 1.828.047.127.248.192.366.125a.557.557 0 00.17-.232c.093-.292.164-.636.427-.794l.088.038c-.404.831-.388 1.892-.177 2.791s.612 1.718.59 2.642c-.01.417-.195 1.172.104 1.463.25.244.963.297 1.208-.041.101-.14.029-.478.036-.648.016-.407.056-.652.071-1.06.829.138 1.594-.093 2.192-.646a1.882 1.882 0 00.502-.127c1.185.299 3.665.366 3.673.371l.031-.002a.97.97 0 00.27.324 1.238 1.238 0 01.118.446l.004.087a.77.77 0 01.002.048c0 .05 0 .103-.003.159-.012.303-.061.509-.037.79v.005a1.4 1.4 0 00.041.47c.006.019.015.036.022.054a.66.66 0 00.081.217c.096.149.372.218.526.215.176-.004.431-.02.518-.144.124-.178.112-.623.098-.874-.007-.122-.018-.273-.023-.435v-.025c.008-.254.035-.506.082-.756a.848.848 0 01.134-.364c.098-.13.254-.197.396-.275l.062-.038c.118-.04.269-.05.397-.156.963-.807 1.765-1.605 2.128-2.903.109-.389.151-.726.378-1.171.146-.122.127-.069.196-.248.006-.017.101-.109.104-.128.021-.033.084-.143.084-.143s-.194-.05-.236-.051c-.189-.114-.302.032-.473-.109a7.786 7.786 0 01-.312-.318c-.14-.154-.049-.431-.217-.553a.4.4 0 01-.134-.137l-.001-.005a1.868 1.868 0 01-.032-.129l-.001-.004c-.019-.143.137-.286.252-.43l.004.062c.058.529.475.851.799 1.07.112.076.309.138.433.192.389.171.966.078 1.387.009a.947.947 0 00.296-.093c.298-.156.427-.521.382-.846zm-4.075-.687c-.099.215-.349.609-.584.596-.219-.013-.374-.242-.384-.462-.01-.219.16-.595.255-.792.061-.129-.074.721.038.758l.247.099c.205-.139.317-.491.42-.418.03.021.037.066.04.104a.249.249 0 01-.032.115z"/></g><g><path class="st10" d="M42.275 43.659h4.02a.53.53 0 00.53-.53v-1.503a.53.53 0 00-.53-.529h-4.02a.53.53 0 00-.53.529v1.503c.001.292.239.53.53.53zM47.849 43.659h4.02a.53.53 0 00.53-.53v-1.503a.53.53 0 00-.53-.529h-4.02a.53.53 0 00-.53.529v1.503c0 .292.238.53.53.53zM46.295 47.303h-4.02a.53.53 0 00-.53.53v1.503a.53.53 0 00.53.529h4.02a.53.53 0 00.53-.529v-1.503a.532.532 0 00-.53-.53zM51.868 47.303h-4.02a.53.53 0 00-.53.53v1.503a.53.53 0 00.53.529h4.02a.53.53 0 00.53-.529v-1.503a.53.53 0 00-.53-.53zM43.708 46.272v-1.504a.53.53 0 00-.53-.529h-4.02a.531.531 0 00-.53.529v1.504c0 .291.239.529.53.529h4.02a.53.53 0 00.53-.529zM44.785 44.239a.53.53 0 00-.53.529v1.504a.53.53 0 00.53.529h4.02a.53.53 0 00.53-.529v-1.504a.53.53 0 00-.53-.529h-4.02zM54.405 44.239h-4.02a.53.53 0 00-.53.529v1.504a.53.53 0 00.53.529h4.02a.53.53 0 00.529-.529v-1.504a.531.531 0 00-.529-.529z"/></g><g id="V_4_"><path class="st30" d="M44.66 84.251c-.414 0-.802-.16-1.095-.453L30.831 71.063c-.305-.305-.473-.71-.473-1.141s.167-.836.472-1.142L34.613 65a1.608 1.608 0 012.283 0l7.748 7.748 12.772-13.572a1.617 1.617 0 012.298-.016l3.782 3.782c.305.305.473.71.473 1.141s-.167.836-.472 1.142l-17.729 18.56a1.547 1.547 0 01-1.108.466z"/><path class="st8" d="M58.572 59.437c.221 0 .442.085.611.253l3.782 3.782a.865.865 0 010 1.222l-17.74 18.574a.798.798 0 01-1.129 0L31.361 70.533a.865.865 0 010-1.222l3.781-3.781a.86.86 0 011.221 0l8.296 8.295L57.96 59.689a.868.868 0 01.612-.252m0-1.5c-.631 0-1.225.246-1.671.692L44.627 71.672l-7.202-7.202a2.346 2.346 0 00-1.671-.692c-.632 0-1.225.245-1.672.692l-3.781 3.781a2.366 2.366 0 000 3.343l12.734 12.734a2.283 2.283 0 001.625.673c.614 0 1.191-.239 1.625-.673l17.764-18.6c.897-.896.897-2.396-.024-3.317l-3.782-3.782a2.347 2.347 0 00-1.671-.692z"/></g></svg>