<svg xmlns="http://www.w3.org/2000/svg" width="100" height="100"><path fill="#55A4B0" d="M6.869 92.904A5.374 5.374 0 011.5 87.536V6.869A5.375 5.375 0 016.869 1.5h80.667a5.374 5.374 0 015.368 5.369v80.667a5.373 5.373 0 01-5.368 5.368H6.869z"/><path fill="#C0E9FF" d="M87.536 3a3.873 3.873 0 013.868 3.869v80.667a3.872 3.872 0 01-3.868 3.868H6.869A3.872 3.872 0 013 87.536V6.869A3.874 3.874 0 016.869 3h80.667m0-3H6.869A6.87 6.87 0 000 6.869v80.667a6.868 6.868 0 006.869 6.868h80.667a6.867 6.867 0 006.868-6.868V6.869A6.868 6.868 0 0087.536 0z"/><path fill="#CCEFFE" d="M35.751 72.219a1.332 1.332 0 01-1.331-1.33v-5.31c0-.733.597-1.331 1.331-1.331h22.901c.734 0 1.332.598 1.332 1.331v5.31c0 .733-.598 1.33-1.332 1.33H35.751z"/><path fill="#223948" d="M58.654 64.998c.32 0 .58.261.58.581v5.31c0 .32-.26.58-.58.58H35.751a.58.58 0 01-.581-.58v-5.31c0-.32.26-.581.581-.581h22.903m0-1.5H35.751a2.084 2.084 0 00-2.081 2.081v5.31c0 1.146.934 2.08 2.081 2.08h22.903c1.146 0 2.08-.934 2.08-2.08v-5.31a2.083 2.083 0 00-2.08-2.081z"/><g><path fill="#CCEFFE" d="M47.181 50.204c-5.233 0-9.332-2.614-9.332-5.951 0-1.4.468-2.726 1.361-3.874-.915-1.814-1.361-4.238-1.361-7.378 0-3.024.848-5.574 2.459-7.434-.718-1.27-1.133-2.761-1.133-4.127 0-5.646 2.851-8.757 8.027-8.757 5.224 0 7.983 3.028 7.983 8.757a8.835 8.835 0 01-.853 3.788c1.476 1.765 2.224 4.374 2.224 7.772 0 2.972-.486 5.523-1.377 7.296a6.321 6.321 0 011.377 3.956c.001 3.338-4.118 5.952-9.375 5.952z"/><path fill="#223948" d="M47.203 13.684c3.869 0 6.982 1.724 6.982 7.757 0 1.245-.313 2.69-1.072 3.946 1.441 1.382 2.441 3.707 2.441 7.614 0 3.075-.541 5.775-1.595 7.421 1.015 1.041 1.595 2.354 1.595 3.832 0 2.514-3.443 4.95-8.375 4.95s-8.332-2.437-8.332-4.95c0-1.404.572-2.701 1.574-3.752-1.068-1.723-1.574-4.234-1.574-7.501 0-3.452 1.14-5.801 2.72-7.308-.992-1.402-1.394-3.057-1.394-4.253.002-5.9 3.16-7.756 7.03-7.756m0-2c-5.737 0-9.028 3.557-9.028 9.757 0 1.317.342 2.735.946 4.008-1.192 1.587-2.272 4.004-2.272 7.553 0 2.993.396 5.39 1.208 7.271a7.167 7.167 0 00-1.208 3.982c0 3.897 4.538 6.95 10.332 6.95 5.818 0 10.375-3.053 10.375-6.95a7.27 7.27 0 00-1.225-4.069c.795-1.868 1.225-4.356 1.225-7.184 0-3.341-.695-5.995-2.07-7.914a9.89 9.89 0 00.701-3.646c-.001-6.294-3.191-9.758-8.984-9.758z"/><path fill="#CCEFFE" d="M47.181 49.704c-4.87 0-8.832-2.445-8.832-5.451 0-3.862 3.797-6.775 8.832-6.775 5.142 0 8.875 2.85 8.875 6.775.001 3.006-3.982 5.451-8.875 5.451z"/><path fill="#223948" d="M47.181 37.978c4.93 0 8.375 2.651 8.375 6.276 0 2.514-3.445 4.95-8.375 4.95-4.931 0-8.332-2.437-8.332-4.95 0-3.448 3.401-6.276 8.332-6.276m0-1c-5.32 0-9.332 3.128-9.332 7.276 0 3.336 4.099 5.95 9.332 5.95 5.256 0 9.375-2.614 9.375-5.95.001-4.217-3.943-7.276-9.375-7.276z"/><g><path fill="#CCEFFE" d="M47.181 43.664c-2.43 0-5.604-.74-6.83-2.365-1.347-1.785-2.001-4.499-2.001-8.298 0-6.9 4.59-10.044 8.853-10.044 5.958 0 8.854 3.285 8.854 10.044 0 4.005-.877 7.147-2.406 8.623-1.307 1.258-3.786 2.04-6.47 2.04z"/><path fill="#223948" d="M47.203 23.457c3.757 0 8.354 1.144 8.354 9.544 0 3.667-.762 6.823-2.254 8.263-1.238 1.193-3.62 1.9-6.122 1.9-2.432 0-5.371-.76-6.431-2.166-1.297-1.719-1.9-4.408-1.9-7.997-.001-7.074 4.773-9.544 8.353-9.544m0-1c-4.505 0-9.354 3.3-9.354 10.544 0 3.912.688 6.726 2.102 8.6 1.329 1.762 4.679 2.563 7.229 2.563 2.809 0 5.419-.836 6.815-2.181 1.627-1.568 2.56-4.843 2.56-8.982.002-7.095-3.058-10.544-9.352-10.544z"/></g><g><path fill="#CCEFFE" d="M47.181 28.946c-5.468 0-7.505-4.604-7.505-7.506 0-6.824 4.093-8.257 7.527-8.257 4.966 0 7.484 2.778 7.484 8.257-.001 2.789-1.582 7.506-7.506 7.506z"/><path fill="#223948" d="M47.203 13.684c3.869 0 6.982 1.724 6.982 7.757 0 2.939-1.724 7.006-7.004 7.006-5.282 0-7.006-4.509-7.006-7.006 0-5.901 3.158-7.757 7.028-7.757m0-1c-5.177 0-8.028 3.109-8.028 8.757 0 3.095 2.173 8.006 8.006 8.006 5.5 0 8.004-4.15 8.004-8.006.001-5.729-2.76-8.757-7.982-8.757z"/></g></g></svg>