<svg xmlns="http://www.w3.org/2000/svg" width="100" height="100"><path fill="#55A4B0" d="M6.869 92.904A5.374 5.374 0 011.5 87.536V6.869A5.374 5.374 0 016.869 1.5h80.667a5.374 5.374 0 015.368 5.369v80.667a5.373 5.373 0 01-5.368 5.368H6.869z"/><path fill="#C0E9FF" d="M87.536 3a3.872 3.872 0 013.868 3.869v80.667a3.87 3.87 0 01-3.868 3.868H6.869A3.872 3.872 0 013 87.536V6.869A3.873 3.873 0 016.869 3h80.667m0-3H6.869A6.869 6.869 0 000 6.869v80.667a6.868 6.868 0 006.869 6.868h80.667a6.867 6.867 0 006.868-6.868V6.869A6.868 6.868 0 0087.536 0z"/><path fill="#CCEFFE" d="M35.752 75.454a1.332 1.332 0 01-1.331-1.331v-5.309c0-.734.597-1.332 1.331-1.332h22.902c.732 0 1.33.598 1.33 1.332v5.309c0 .734-.598 1.331-1.33 1.331H35.752z"/><path fill="#223948" d="M58.654 68.232c.32 0 .58.262.58.582v5.309c0 .32-.26.581-.58.581H35.752a.581.581 0 01-.581-.581v-5.309c0-.32.26-.582.581-.582h22.902m0-1.5H35.752a2.085 2.085 0 00-2.081 2.082v5.309c0 1.146.934 2.081 2.081 2.081h22.902c1.146 0 2.08-.935 2.08-2.081v-5.309a2.084 2.084 0 00-2.08-2.082z"/><g><g opacity=".15"><path d="M36.184 49.805a.56.56 0 01-.56-.56v-34.93a.56.56 0 01.56-.56h24.039a.56.56 0 01.56.56v34.93a.56.56 0 01-.56.56H36.184z"/><path d="M59.781 14.756v34.048H36.624V14.756h23.157m.442-2H36.184a1.56 1.56 0 00-1.56 1.56v34.93a1.56 1.56 0 001.56 1.559h24.039c.86 0 1.56-.697 1.56-1.559v-34.93a1.562 1.562 0 00-1.56-1.56z"/><path d="M60.223 13.756a.56.56 0 01.56.56v34.93a.56.56 0 01-.56.559H36.184a.56.56 0 01-.56-.559v-34.93a.56.56 0 01.56-.56h24.039m0-1H36.184a1.56 1.56 0 00-1.56 1.56v34.93a1.56 1.56 0 001.56 1.559h24.039c.86 0 1.56-.697 1.56-1.559v-34.93a1.562 1.562 0 00-1.56-1.56z"/></g><radialGradient id="a" cx="-500.816" cy="-229.999" r="15.388" gradientTransform="matrix(0 -1 -1.064 0 -197.515 -470.037)" gradientUnits="userSpaceOnUse"><stop offset="0" stop-color="#32b4ba"/><stop offset=".163" stop-color="#30abba"/><stop offset=".429" stop-color="#2b93ba"/><stop offset=".762" stop-color="#236bba"/><stop offset="1" stop-color="#1d4bba"/></radialGradient><path fill="url(#a)" d="M35.184 48.805a.56.56 0 01-.56-.56v-34.93a.56.56 0 01.56-.56h24.039a.56.56 0 01.56.56v34.93a.56.56 0 01-.56.56H35.184z"/><path fill="#66C2E2" d="M58.781 13.756v34.048H35.624V13.756h23.157m.442-2H35.184a1.56 1.56 0 00-1.56 1.56v34.93a1.56 1.56 0 001.56 1.559h24.039c.86 0 1.56-.697 1.56-1.559v-34.93a1.562 1.562 0 00-1.56-1.56z"/><path fill="#414042" d="M59.223 12.756a.56.56 0 01.56.56v34.93a.56.56 0 01-.56.559H35.184a.56.56 0 01-.56-.559v-34.93a.56.56 0 01.56-.56h24.039m0-1H35.184a1.56 1.56 0 00-1.56 1.56v34.93a1.56 1.56 0 001.56 1.559h24.039c.86 0 1.56-.697 1.56-1.559v-34.93a1.562 1.562 0 00-1.56-1.56z"/></g><g><linearGradient id="b" gradientUnits="userSpaceOnUse" x1="143.12" y1="-167.724" x2="143.12" y2="-163.605" gradientTransform="matrix(1 0 0 -1 -96 -130)"><stop offset="0" stop-color="#70aefe"/><stop offset=".16" stop-color="#83bcfe"/><stop offset=".527" stop-color="#abd7fe"/><stop offset=".82" stop-color="#c3e9fe"/><stop offset="1" stop-color="#cceffe"/></linearGradient><path fill="url(#b)" d="M47.09 37.72c-1.363-.169-1.974-1.155-1.974-2.058.001-.903.61-1.889 1.974-2.057 1.424.168 2.033 1.153 2.034 2.057 0 .902-.61 1.889-1.974 2.058l-.03.004-.03-.004z"/><path fill="#223948" d="M47.12 33.853c2.338.289 2.338 3.33 0 3.618-2.338-.288-2.338-3.329 0-3.618m0-.504l-.062.008c-1.506.187-2.192 1.325-2.192 2.306s.687 2.119 2.192 2.306l.062.007.062-.007c1.506-.187 2.191-1.325 2.191-2.306s-.686-2.119-2.191-2.306l-.062-.008z"/><g><linearGradient id="c" gradientUnits="userSpaceOnUse" x1="143.172" y1="-161.788" x2="143.172" y2="-151.379" gradientTransform="matrix(1 0 0 -1 -96 -130)"><stop offset="0" stop-color="#70aefe"/><stop offset=".16" stop-color="#83bcfe"/><stop offset=".527" stop-color="#abd7fe"/><stop offset=".82" stop-color="#c3e9fe"/><stop offset="1" stop-color="#cceffe"/></linearGradient><path fill="url(#c)" d="M45.442 31.788v-.25c0-1.322.986-2.581 1.831-3.258 1.03-.823 1.645-1.709 1.645-2.369 0-1.097-1.023-1.261-1.633-1.261-1.058 0-1.787.551-2.229 1.683l-.105.271-2.88-1.661.08-.201c.843-2.106 2.801-3.363 5.238-3.363 1.277 0 2.422.387 3.401 1.148.983.766 1.481 1.834 1.481 3.176 0 1.851-1.193 2.985-2.153 3.896-.709.673-1.321 1.254-1.321 1.938v.25l-3.355.001z"/><path fill="#223948" d="M47.389 21.628c1.241 0 2.317.372 3.248 1.097.932.724 1.387 1.717 1.387 2.979 0 3.083-3.477 4.014-3.477 5.834h-2.854c0-1.221.91-2.399 1.737-3.062.828-.662 1.738-1.655 1.738-2.565 0-.972-.703-1.51-1.883-1.51-1.158 0-1.985.62-2.462 1.841l-2.44-1.406c.827-2.07 2.771-3.208 5.006-3.208m0-.5c-2.506 0-4.602 1.35-5.471 3.521l-.16.403.375.216 2.441 1.407.504.291.212-.543c.398-1.024 1.052-1.522 1.995-1.522.917 0 1.383.34 1.383 1.01 0 .577-.594 1.41-1.55 2.175-.931.745-1.926 2.043-1.926 3.452v.5h3.854v-.5c0-.576.576-1.123 1.243-1.756.995-.944 2.232-2.12 2.232-4.078 0-1.424-.531-2.559-1.58-3.373-1.022-.799-2.218-1.203-3.552-1.203z"/></g></g></svg>