<svg version="1.1" id="Layer_1" xmlns="http://www.w3.org/2000/svg" x="0" y="0" width="100" height="100" xml:space="preserve"><style>.st8{fill:#223948}.st30{fill:#cceffe}</style><path d="M6.962 92.789a5.375 5.375 0 01-5.37-5.37V6.752a5.375 5.375 0 015.37-5.369h80.667a5.375 5.375 0 015.37 5.369v80.667a5.375 5.375 0 01-5.37 5.37H6.962z" fill="#55a4b0"/><path d="M87.628 2.883a3.874 3.874 0 013.869 3.87v80.666a3.874 3.874 0 01-3.869 3.87H6.962a3.874 3.874 0 01-3.87-3.87V6.753a3.874 3.874 0 013.87-3.87h80.666m0-3H6.962a6.87 6.87 0 00-6.87 6.87v80.666a6.87 6.87 0 006.87 6.87h80.667a6.87 6.87 0 006.869-6.87V6.753a6.87 6.87 0 00-6.87-6.87z" fill="#c0e9ff"/><g id="Development_6_"><g opacity=".15"><path d="M36.276 49.688a.56.56 0 01-.559-.56v-34.93a.56.56 0 01.559-.559h24.039a.56.56 0 01.559.559v34.93a.56.56 0 01-.559.56H36.276z"/><path d="M59.874 14.64v34.048H36.717V14.64h23.157m.44-2H36.276c-.861 0-1.559.698-1.559 1.559v34.93c0 .861.698 1.56 1.559 1.56h24.039a1.56 1.56 0 001.559-1.56v-34.93a1.56 1.56 0 00-1.56-1.559z"/><path d="M60.314 13.64a.56.56 0 01.559.559v34.93a.56.56 0 01-.559.56H36.276a.56.56 0 01-.559-.56v-34.93a.56.56 0 01.559-.559h24.038m0-1H36.276c-.861 0-1.559.698-1.559 1.559v34.93c0 .861.698 1.56 1.559 1.56h24.039a1.56 1.56 0 001.559-1.56v-34.93a1.56 1.56 0 00-1.56-1.559z"/></g><radialGradient id="SVGID_1_" cx="30.669" cy="30.664" r="15.387" gradientTransform="matrix(0 -1 1.064 0 14.668 61.333)" gradientUnits="userSpaceOnUse"><stop offset="0" stop-color="#32b4ba"/><stop offset=".163" stop-color="#30abba"/><stop offset=".429" stop-color="#2b93ba"/><stop offset=".762" stop-color="#236bba"/><stop offset="1" stop-color="#1d4bba"/></radialGradient><path d="M35.276 48.688a.56.56 0 01-.559-.56v-34.93a.56.56 0 01.559-.559h24.039a.56.56 0 01.559.559v34.93a.56.56 0 01-.559.56H35.276z" fill="url(#SVGID_1_)"/><path d="M58.874 13.64v34.048H35.717V13.64h23.157m.44-2H35.276c-.861 0-1.559.698-1.559 1.559v34.93c0 .861.698 1.56 1.559 1.56h24.039a1.56 1.56 0 001.559-1.56v-34.93a1.56 1.56 0 00-1.56-1.559z" fill="#66c2e2"/><path d="M59.314 12.64a.56.56 0 01.559.559v34.93a.56.56 0 01-.559.56H35.276a.56.56 0 01-.559-.56v-34.93a.56.56 0 01.559-.559h24.038m0-1H35.276c-.861 0-1.559.698-1.559 1.559v34.93c0 .861.698 1.56 1.559 1.56h24.039a1.56 1.56 0 001.559-1.56v-34.93a1.56 1.56 0 00-1.56-1.559z" fill="#414042"/></g><g id="Question_1_"><linearGradient id="SVGID_2_" gradientUnits="userSpaceOnUse" x1="47.212" y1="37.606" x2="47.212" y2="33.488"><stop offset="0" stop-color="#70aefe"/><stop offset=".16" stop-color="#83bcfe"/><stop offset=".527" stop-color="#abd7fe"/><stop offset=".82" stop-color="#c3e9fe"/><stop offset="1" stop-color="#cceffe"/></linearGradient><path d="M47.182 37.604c-1.363-.168-1.973-1.156-1.973-2.059 0-.901.61-1.889 1.973-2.057 1.424.168 2.034 1.155 2.034 2.057 0 .902-.61 1.891-1.973 2.059l-.031.003-.03-.003z" fill="url(#SVGID_2_)"/><path class="st8" d="M47.212 33.736c2.338.288 2.338 3.329 0 3.618-2.337-.289-2.337-3.33 0-3.618m0-.504l-.061.008c-1.506.186-2.192 1.325-2.192 2.305 0 .98.686 2.12 2.192 2.306l.061.008.062-.008c1.506-.186 2.192-1.325 2.192-2.306 0-.979-.686-2.119-2.192-2.305l-.062-.008z"/><g><linearGradient id="SVGID_3_" gradientUnits="userSpaceOnUse" x1="47.264" y1="31.67" x2="47.264" y2="21.261"><stop offset="0" stop-color="#70aefe"/><stop offset=".16" stop-color="#83bcfe"/><stop offset=".527" stop-color="#abd7fe"/><stop offset=".82" stop-color="#c3e9fe"/><stop offset="1" stop-color="#cceffe"/></linearGradient><path d="M45.535 31.67v-.25c0-1.32.946-2.547 1.831-3.256 1.029-.824 1.644-1.709 1.644-2.371 0-1.096-1.022-1.26-1.632-1.26-1.059 0-1.788.551-2.229 1.682l-.105.271-2.881-1.659.081-.202c.842-2.106 2.8-3.364 5.238-3.364 1.276 0 2.421.387 3.401 1.149.983.766 1.482 1.833 1.482 3.176 0 1.852-1.195 2.986-2.155 3.896-.708.674-1.32 1.254-1.32 1.938v.25h-3.355z" fill="url(#SVGID_3_)"/><path class="st8" d="M47.481 21.512c1.241 0 2.317.372 3.248 1.096.931.725 1.386 1.718 1.386 2.979 0 3.082-3.476 4.013-3.476 5.834h-2.855c0-1.221.911-2.4 1.738-3.062.828-.661 1.738-1.654 1.738-2.564 0-.973-.704-1.511-1.883-1.511-1.158 0-1.986.621-2.461 1.842l-2.441-1.407c.827-2.07 2.772-3.207 5.006-3.207m0-.5c-2.506 0-4.602 1.349-5.471 3.521l-.161.402.375.217 2.441 1.406.504.291.211-.542c.399-1.025 1.052-1.523 1.996-1.523.917 0 1.383.34 1.383 1.011 0 .576-.594 1.409-1.55 2.175-.931.744-1.925 2.042-1.925 3.452v.5h3.855v-.5c0-.576.576-1.123 1.243-1.757.995-.944 2.233-2.12 2.233-4.077 0-1.424-.531-2.559-1.579-3.374-1.025-.798-2.221-1.202-3.555-1.202z"/></g></g><g><path class="st30" d="M42.501 79.321a1.493 1.493 0 01-.335-2.946 12 12 0 01.207-.619c.033-.091.059-.149.069-.206 0-.047-.047-.26-.096-.485l-.071-.337c-1.312-.708-2.489-1.688-3.503-2.918l-8.297-4.404a2.712 2.712 0 01-1.374-2.281l-.107-4.625v-.715a2.247 2.247 0 012.245-2.244h32.113a2.247 2.247 0 012.245 2.244v.697l-.108 4.642a2.703 2.703 0 01-1.353 2.271l-8.562 4.545c-.991 1.169-2.131 2.106-3.393 2.788l-.072.337c-.049.226-.095.438-.094.494.009.049.035.106.068.197.049.138.114.319.195.581h.176c.823 0 1.492.669 1.492 1.492s-.669 1.492-1.492 1.492h-9.953zm16.388-16.742c0 1.079-.11 2.142-.328 3.175l3.144-1.559v-2.518a.247.247 0 00-.247-.246h-2.569v1.148zm-23.007 3.104a15.354 15.354 0 01-.315-3.104v-1.147h-2.435a.246.246 0 00-.246.246v2.523l2.996 1.482z"/><path class="st8" d="M63.352 58.291c.822 0 1.495.672 1.495 1.494v.697l-.108 4.624a1.939 1.939 0 01-.975 1.637l-8.671 4.603c-.981 1.185-2.155 2.154-3.469 2.827a.253.253 0 00-.129.174c-.344 1.675-.302.94.126 2.413a.254.254 0 01-.241.327h1.073a.742.742 0 110 1.484h-9.951a.742.742 0 010-1.484h.575a.255.255 0 01-.241-.327c.429-1.473.471-.738.127-2.413a.254.254 0 00-.13-.174c-1.361-.696-2.572-1.711-3.573-2.955l-8.432-4.475a1.939 1.939 0 01-.975-1.637l-.108-4.624v-.697c0-.822.672-1.494 1.495-1.494h32.112m-5.951 8.875l4.862-2.41a.419.419 0 00.192-.353v-2.726a.996.996 0 00-.997-.996h-3.319v1.897a14.45 14.45 0 01-.738 4.588m-20.37-.078a14.447 14.447 0 01-.715-4.509v-1.897h-3.185a.996.996 0 00-.996.996v2.726c0 .143.072.275.191.353l4.705 2.331m26.321-10.297H31.239a2.998 2.998 0 00-2.995 2.994v.697l.108 4.659a3.45 3.45 0 001.73 2.903l8.209 4.357a12.571 12.571 0 003.321 2.813l.001.007.059.268-.005.012-.101.289a2.245 2.245 0 00-1.307 2.038 2.245 2.245 0 002.242 2.242h9.951a2.245 2.245 0 002.242-2.242 2.247 2.247 0 00-1.865-2.211l-.041-.115a.07.07 0 00-.005-.013l.059-.268.001-.007a12.616 12.616 0 003.207-2.681l8.417-4.467a3.47 3.47 0 001.771-2.928l.108-4.623v-.732a2.997 2.997 0 00-2.994-2.992zm-3.713 5.391h1.316v1.549l-1.421.704c.07-.612.105-1.231.105-1.855v-.398zm-26.004 0h1.181v.397c0 .6.033 1.195.098 1.785l-1.279-.634v-1.548z"/><path class="st30" d="M42.021 81.904c-1.052 0-1.908-.855-1.908-1.907s.856-1.908 1.908-1.908h10.913a1.909 1.909 0 010 3.815H42.021z"/><path class="st8" d="M52.934 78.839a1.158 1.158 0 010 2.315H42.021a1.158 1.158 0 010-2.315h10.913m0-1.5H42.021a2.661 2.661 0 00-2.658 2.657 2.66 2.66 0 002.658 2.658h10.913a2.66 2.66 0 002.657-2.658 2.66 2.66 0 00-2.657-2.657z"/><path class="st30" d="M40.248 84.67a1.334 1.334 0 01-1.332-1.332v-.143l.617-1.562a.97.97 0 01.95-.778H54.47a.97.97 0 01.95.778l.617 1.562v.143c0 .734-.597 1.332-1.332 1.332H40.248z"/><path class="st8" d="M54.47 81.604c.121 0 .219.098.219.219l.598 1.515c0 .32-.26.581-.581.581H40.248a.582.582 0 01-.582-.581l.598-1.515c0-.121.098-.219.219-.219H54.47m0-1.5H40.483c-.806 0-1.484.557-1.669 1.307l-.543 1.375-.105.266v.286c0 1.147.934 2.081 2.082 2.081h14.458a2.084 2.084 0 002.081-2.081v-.286l-.104-.266-.543-1.375a1.722 1.722 0 00-1.67-1.307z"/><path class="st30" d="M40.587 72.365c-.292 0-.552-.143-.79-.298l-9.205-4.883a2.456 2.456 0 01-1.241-2.066l-.108-4.623v-.71c0-1.1.895-1.994 1.995-1.994h8.968c1.1 0 1.995.895 1.995 1.994 0 .771-.626 1.396-1.396 1.396h-7.674a.497.497 0 00-.496.497v2.672l7.704 3.819c.567.363.776 1.024.551 1.594l.608 1.936-.128.198c-.25.387-.563.468-.783.468z"/><path class="st8" d="M40.207 58.291c.822 0 1.495.672 1.495 1.494a.896.896 0 01-.896.896h-7.674a.996.996 0 00-.996.996v2.726c0 .143.072.275.191.353l7.791 3.861c.338.22.456.657.287 1.012a.255.255 0 00-.02.189l.567 1.807c-.111.172-.23.24-.364.24-.152 0-.322-.09-.518-.217l-9.242-4.905a1.939 1.939 0 01-.975-1.637l-.108-4.624v-.697c0-.822.672-1.494 1.495-1.494H40.207m0-1h-8.968a2.498 2.498 0 00-2.495 2.494v.697l.108 4.646a2.952 2.952 0 001.479 2.482l9.234 4.901c.28.178.619.353 1.023.353.281 0 .811-.091 1.203-.697l.256-.395-.141-.448-.49-1.559a1.8 1.8 0 00-.755-1.988l-.048-.031-.051-.025-7.426-3.682v-2.362l7.67.004a1.898 1.898 0 001.896-1.896 2.497 2.497 0 00-2.495-2.494z"/><g><path class="st30" d="M54.002 72.365c-.219 0-.532-.081-.783-.468l-.128-.198.608-1.936a1.3 1.3 0 01.502-1.565l7.753-3.848v-2.672a.498.498 0 00-.497-.497h-7.673c-.77 0-1.396-.626-1.396-1.396 0-1.101.895-1.995 1.995-1.995h8.968c1.1 0 1.995.895 1.995 1.994v.698l-.108 4.635a2.45 2.45 0 01-1.227 2.059l-9.256 4.913c-.2.134-.46.276-.753.276.001 0 .001 0 0 0z"/><path class="st8" d="M63.352 58.291c.822 0 1.495.672 1.495 1.494v.697l-.108 4.624a1.937 1.937 0 01-.976 1.637l-9.242 4.905c-.196.127-.366.217-.518.217-.133 0-.252-.068-.364-.24l.567-1.807a.255.255 0 00-.02-.189.801.801 0 01.286-1.012l7.791-3.861a.419.419 0 00.192-.353v-2.726a.996.996 0 00-.997-.996h-7.674a.896.896 0 01-.896-.896c0-.822.672-1.494 1.495-1.494H63.352m0-1H54.383a2.497 2.497 0 00-2.495 2.494c0 1.046.851 1.896 1.896 1.896h7.674l-.003 2.358-7.427 3.682-.051.025-.048.031a1.803 1.803 0 00-.755 1.988l-.49 1.559-.141.448.255.395c.393.606.922.697 1.203.697.404 0 .743-.175 1.023-.353l9.206-4.887a2.963 2.963 0 001.506-2.496l.108-4.624v-.721a2.494 2.494 0 00-2.492-2.492z"/></g><g><path class="st30" d="M43.076 77.587a.743.743 0 01-.599-.3.762.762 0 01-.123-.666c.109-.375.194-.611.255-.781.101-.281.101-.281-.018-.829l-.095-.449c-4.062-2.136-6.68-6.824-6.68-11.982v-3.385c0-.773.63-1.403 1.404-1.403h20.022a1.408 1.408 0 011.396 1.404v3.384c0 5.158-2.618 9.847-6.68 11.983l-.095.448c-.119.548-.119.548-.018.829.061.17.146.406.254.78a.76.76 0 01-.122.667.745.745 0 01-.599.3h-8.302z"/><path class="st8" d="M37.22 58.291h20.023a.903.903 0 01.896.903v3.385c0 5.179-2.679 9.631-6.516 11.594a.253.253 0 00-.129.174c-.344 1.675-.302.94.126 2.413a.254.254 0 01-.241.327h-8.303a.255.255 0 01-.241-.327c.429-1.473.471-.738.127-2.413a.254.254 0 00-.13-.174c-3.836-1.963-6.516-6.415-6.516-11.594v-3.385c0-.499.406-.903.904-.903m20.027-1H37.228c-.516 0-.994.197-1.354.557-.359.36-.558.838-.558 1.347v3.385c0 5.253 2.633 10.041 6.738 12.312l.048.225c.037.173.073.337.085.417-.012.039-.029.082-.049.138-.063.177-.151.422-.264.81a1.257 1.257 0 001.202 1.606h8.303c.391 0 .764-.187 1-.5.236-.315.312-.729.202-1.106-.113-.388-.201-.633-.264-.81-.02-.056-.037-.099-.049-.138.012-.08.048-.244.085-.417l.048-.225c4.105-2.271 6.738-7.06 6.738-12.312v-3.385a1.908 1.908 0 00-1.888-1.903h-.004v-.001z"/></g><g><path class="st30" d="M42.502 79.071c-.685 0-1.242-.558-1.242-1.242s.557-1.242 1.242-1.242h9.95c.685 0 1.242.558 1.242 1.242s-.557 1.242-1.242 1.242h-9.95z"/><path class="st8" d="M52.452 77.087a.742.742 0 110 1.484h-9.951a.742.742 0 010-1.484h9.951m0-1h-9.951c-.96 0-1.742.781-1.742 1.742 0 .96.781 1.742 1.742 1.742h9.951c.96 0 1.742-.782 1.742-1.742 0-.961-.781-1.742-1.742-1.742z"/></g><g><path class="st30" d="M42.021 81.654c-.914 0-1.658-.743-1.658-1.657s.744-1.658 1.658-1.658h10.913c.914 0 1.657.744 1.657 1.658s-.744 1.657-1.657 1.657H42.021z"/><path class="st8" d="M52.934 78.839a1.158 1.158 0 010 2.315H42.021a1.158 1.158 0 010-2.315h10.913m0-1H42.021a2.16 2.16 0 00-2.158 2.157 2.16 2.16 0 002.158 2.158h10.913a2.16 2.16 0 002.157-2.158 2.16 2.16 0 00-2.157-2.157z"/></g><g><path class="st30" d="M40.248 84.42a1.083 1.083 0 01-1.082-1.082v-.095l.608-1.541a.72.72 0 01.708-.598H54.47a.72.72 0 01.709.598l.608 1.541v.095c0 .597-.485 1.082-1.082 1.082H40.248z"/><path class="st8" d="M54.47 81.604c.121 0 .219.098.219.219l.598 1.515a.58.58 0 01-.581.581H40.248a.582.582 0 01-.582-.581l.598-1.515c0-.121.098-.219.219-.219H54.47m0-1H40.483c-.582 0-1.07.41-1.19.956l-.557 1.41-.07.177v.19c0 .872.709 1.581 1.582 1.581h14.458c.872 0 1.581-.709 1.581-1.581v-.19l-.07-.177-.557-1.41a1.22 1.22 0 00-1.19-.956z"/></g><g><path d="M50.78 71.779a.638.638 0 01-.296-.073l-3.24-1.946-3.222 1.936a.63.63 0 01-.8-.143.636.636 0 01-.14-.516l.62-3.613-2.507-2.781c-.158-.154-.219-.403-.144-.635s.271-.396.512-.432l3.494-.004 1.612-3.581a.637.637 0 011.144-.012l1.619 3.598 3.704-.004c.295.039.491.204.566.436s.014.48-.16.651l-2.756 2.769.619 3.609a.631.631 0 01-.625.741z" fill="#fff"/><path class="st8" d="M47.244 60.001c.093 0 .186.048.233.145l1.647 3.659c.038.077.111.13.196.143h3.815a.26.26 0 01.145.443l-2.798 2.811a.26.26 0 00-.075.23l.629 3.668a.261.261 0 01-.377.275l-3.294-1.979a.261.261 0 00-.242 0l-3.294 1.979a.261.261 0 01-.377-.275l.629-3.668a.263.263 0 00-.075-.23l-2.532-2.811a.26.26 0 01.145-.443h3.55a.26.26 0 00.196-.143l1.647-3.659a.253.253 0 01.232-.145m0-.75c-.387 0-.734.215-.906.562l-1.523 3.384h-3.251l-.054.008c-.383.056-.696.319-.815.688s-.022.765.255 1.035l2.351 2.612-.589 3.433a1.01 1.01 0 001.465 1.065l3.067-1.841 3.028 1.819c.183.098.345.138.507.138a1.01 1.01 0 00.995-1.181l-.586-3.418 2.622-2.635c.27-.263.367-.659.248-1.027s-.432-.632-.815-.688l-.054-.008h-3.517l-1.512-3.359a1.01 1.01 0 00-.916-.587z"/></g></g></svg>